<svg width="126" height="111" viewBox="0 0 126 111" fill="none" xmlns="http://www.w3.org/2000/svg">
<path d="M36.0273 92.264C35.382 92.264 34.81 92.1907 34.3113 92.044C33.8273 91.8973 33.4387 91.5967 33.1453 91.142C32.8667 90.6727 32.7273 89.9687 32.7273 89.03V81.704C32.7273 80.8827 32.8667 80.2667 33.1453 79.856C33.4387 79.4453 33.8347 79.174 34.3333 79.042C34.8467 78.8953 35.4187 78.822 36.0493 78.822C36.6947 78.822 37.2593 78.8953 37.7433 79.042C38.2273 79.1887 38.6087 79.4673 38.8873 79.878C39.166 80.2887 39.3053 80.8973 39.3053 81.704V83.992H37.9193V81.682C37.9193 81.11 37.8387 80.6847 37.6773 80.406C37.516 80.1127 37.2887 79.922 36.9953 79.834C36.7167 79.746 36.394 79.702 36.0273 79.702C35.6607 79.702 35.3307 79.746 35.0373 79.834C34.7587 79.922 34.5387 80.1127 34.3773 80.406C34.2307 80.6847 34.1573 81.11 34.1573 81.682V89.404C34.1573 89.9907 34.2307 90.4307 34.3773 90.724C34.5387 91.0027 34.7587 91.186 35.0373 91.274C35.3307 91.362 35.6607 91.406 36.0273 91.406C36.4087 91.406 36.7387 91.362 37.0173 91.274C37.296 91.186 37.516 91.0027 37.6773 90.724C37.8387 90.4307 37.9193 89.9907 37.9193 89.404V87.446H39.3053V89.008C39.3053 89.9613 39.166 90.6727 38.8873 91.142C38.6087 91.5967 38.2273 91.8973 37.7433 92.044C37.2593 92.1907 36.6873 92.264 36.0273 92.264ZM45.3424 92.154C44.6678 92.154 44.1031 92.066 43.6484 91.89C43.2084 91.6993 42.8784 91.3693 42.6584 90.9C42.4531 90.4307 42.3504 89.7853 42.3504 88.964V83.882C42.3504 82.826 42.5778 82.0707 43.0324 81.616C43.5018 81.1613 44.2718 80.934 45.3424 80.934C46.4131 80.934 47.1758 81.154 47.6304 81.594C48.0998 82.034 48.3344 82.7967 48.3344 83.882V88.964C48.3344 89.7853 48.2318 90.4307 48.0264 90.9C47.8211 91.3547 47.4984 91.6773 47.0584 91.868C46.6184 92.0587 46.0464 92.154 45.3424 92.154ZM45.3424 91.296C45.9291 91.296 46.3471 91.1493 46.5964 90.856C46.8458 90.5627 46.9704 90.0273 46.9704 89.25V83.816C46.9704 83.0973 46.8531 82.584 46.6184 82.276C46.3838 81.9533 45.9584 81.792 45.3424 81.792C44.7704 81.792 44.3524 81.946 44.0884 82.254C43.8391 82.5473 43.7144 83.068 43.7144 83.816V89.25C43.7144 90.0127 43.8391 90.548 44.0884 90.856C44.3524 91.1493 44.7704 91.296 45.3424 91.296ZM50.6783 92V91.208C50.9716 91.208 51.2136 91.076 51.4043 90.812C51.6096 90.5333 51.7343 90.1227 51.7783 89.58L52.4823 81.132H57.9823V92H56.5963V82.122H53.8463L53.1423 89.954C53.1276 90.1447 53.0983 90.3573 53.0543 90.592C53.0103 90.8267 52.9296 91.054 52.8123 91.274C52.7096 91.4793 52.5483 91.6553 52.3283 91.802C52.1083 91.934 51.815 92 51.4483 92H50.6783ZM60.79 92L62.154 88.216C62.33 87.776 62.528 87.4387 62.748 87.204C62.968 86.9547 63.2247 86.8153 63.518 86.786C62.7994 86.742 62.2567 86.522 61.89 86.126C61.5234 85.7153 61.34 85.0993 61.34 84.278V83.53C61.34 82.6647 61.5674 82.0487 62.022 81.682C62.4767 81.3007 63.078 81.11 63.826 81.11H67.544V92H66.114V86.94L64.728 87.116C64.4054 87.248 64.134 87.5047 63.914 87.886C63.7087 88.2527 63.518 88.7 63.342 89.228L62.374 92H60.79ZM64.552 86.28H66.114V81.946H64.068C63.6867 81.946 63.364 82.0927 63.1 82.386C62.836 82.6647 62.704 83.0607 62.704 83.574V84.256C62.704 84.9893 62.8654 85.51 63.188 85.818C63.5254 86.126 63.98 86.28 64.552 86.28ZM70.5084 92V81.11H71.8724V85.752H75.3264V81.11H76.6904V92H75.3264V86.808H71.8724V92H70.5084ZM79.6435 92V81.11H81.0075V85.884C81.4329 85.004 81.9242 84.2267 82.4815 83.552C83.0389 82.8773 83.6182 82.3567 84.2195 81.99C84.8209 81.6087 85.3635 81.4107 85.8475 81.396V82.364C85.4662 82.4667 85.1142 82.6353 84.7915 82.87C84.4689 83.09 84.1682 83.354 83.8895 83.662C83.6989 83.8673 83.5229 84.0873 83.3615 84.322C83.2002 84.5567 83.0462 84.7987 82.8995 85.048L85.7815 92H84.2195L81.7335 86.522C81.6015 86.7567 81.4622 87.0133 81.3155 87.292C81.1835 87.5707 81.0809 87.776 81.0075 87.908V92H79.6435ZM90.6784 92.154C90.3411 92.154 89.9964 92.1027 89.6444 92C89.3071 91.912 89.0138 91.6993 88.7644 91.362C88.5298 91.01 88.4124 90.4673 88.4124 89.734V88.678C88.4124 87.9447 88.6324 87.358 89.0724 86.918C89.5271 86.4633 90.1431 86.06 90.9204 85.708C91.4191 85.4587 91.8224 85.2387 92.1304 85.048C92.4531 84.8573 92.6951 84.6447 92.8564 84.41C93.0178 84.1753 93.0984 83.86 93.0984 83.464V83.002C93.0984 82.65 93.0251 82.3787 92.8784 82.188C92.7318 81.9973 92.5338 81.8653 92.2844 81.792C92.0498 81.7187 91.8004 81.682 91.5364 81.682C90.8764 81.682 90.4438 81.8653 90.2384 82.232C90.0331 82.584 89.9304 83.112 89.9304 83.816V84.74H88.6764V83.684C88.6764 83.1413 88.7498 82.6647 88.8964 82.254C89.0431 81.8287 89.3218 81.4987 89.7324 81.264C90.1431 81.0147 90.7444 80.89 91.5364 80.89C92.3724 80.89 92.9958 80.9853 93.4064 81.176C93.8318 81.3667 94.1104 81.638 94.2424 81.99C94.3891 82.342 94.4624 82.76 94.4624 83.244V92H93.1204L93.0984 90.636C92.9224 91.1347 92.6071 91.516 92.1524 91.78C91.6978 92.0293 91.2064 92.154 90.6784 92.154ZM91.1844 91.23C91.8444 91.23 92.3211 90.9953 92.6144 90.526C92.9224 90.0567 93.0764 89.4333 93.0764 88.656V85.18C92.9298 85.4147 92.6878 85.6273 92.3504 85.818C92.0131 86.0087 91.6684 86.1993 91.3164 86.39C90.8178 86.6833 90.4291 86.9913 90.1504 87.314C89.8864 87.622 89.7544 88.0547 89.7544 88.612V89.47C89.7544 89.998 89.8278 90.3867 89.9744 90.636C90.1211 90.8853 90.3044 91.0467 90.5244 91.12C90.7444 91.1933 90.9644 91.23 91.1844 91.23ZM51.234 110.264C50.5886 110.264 50.0166 110.191 49.518 110.044C49.034 109.897 48.6453 109.597 48.352 109.142C48.0733 108.673 47.934 107.969 47.934 107.03V99.704C47.934 98.8827 48.0733 98.2667 48.352 97.856C48.6453 97.4453 49.0413 97.174 49.54 97.042C50.0533 96.8953 50.6253 96.822 51.256 96.822C51.9013 96.822 52.466 96.8953 52.95 97.042C53.434 97.1887 53.8153 97.4673 54.094 97.878C54.3726 98.2887 54.512 98.8973 54.512 99.704V101.992H53.126V99.682C53.126 99.11 53.0453 98.6847 52.884 98.406C52.7226 98.1127 52.4953 97.922 52.202 97.834C51.9233 97.746 51.6006 97.702 51.234 97.702C50.8673 97.702 50.5373 97.746 50.244 97.834C49.9653 97.922 49.7453 98.1127 49.584 98.406C49.4373 98.6847 49.364 99.11 49.364 99.682V107.404C49.364 107.991 49.4373 108.431 49.584 108.724C49.7453 109.003 49.9653 109.186 50.244 109.274C50.5373 109.362 50.8673 109.406 51.234 109.406C51.6153 109.406 51.9453 109.362 52.224 109.274C52.5026 109.186 52.7226 109.003 52.884 108.724C53.0453 108.431 53.126 107.991 53.126 107.404V105.446H54.512V107.008C54.512 107.961 54.3726 108.673 54.094 109.142C53.8153 109.597 53.434 109.897 52.95 110.044C52.466 110.191 51.894 110.264 51.234 110.264ZM57.8211 110V96.14H59.1191V100.012C59.2951 99.6747 59.5591 99.4107 59.9111 99.22C60.2631 99.0147 60.7104 98.912 61.2531 98.912C62.0304 98.912 62.5951 99.0513 62.9471 99.33C63.3137 99.594 63.5484 99.946 63.6511 100.386C63.7537 100.811 63.8051 101.281 63.8051 101.794V110H62.4411V101.992C62.4411 101.772 62.4337 101.545 62.4191 101.31C62.4044 101.061 62.3457 100.833 62.2431 100.628C62.1551 100.423 62.0011 100.254 61.7811 100.122C61.5611 99.9753 61.2384 99.902 60.8131 99.902C60.4317 99.902 60.1164 99.968 59.8671 100.1C59.6324 100.217 59.4564 100.357 59.3391 100.518C59.2364 100.679 59.1851 100.819 59.1851 100.936V110H57.8211ZM69.0437 110.154C68.7063 110.154 68.3617 110.103 68.0097 110C67.6723 109.912 67.379 109.699 67.1297 109.362C66.895 109.01 66.7777 108.467 66.7777 107.734V106.678C66.7777 105.945 66.9977 105.358 67.4377 104.918C67.8923 104.463 68.5083 104.06 69.2857 103.708C69.7843 103.459 70.1877 103.239 70.4957 103.048C70.8183 102.857 71.0603 102.645 71.2217 102.41C71.383 102.175 71.4637 101.86 71.4637 101.464V101.002C71.4637 100.65 71.3903 100.379 71.2437 100.188C71.097 99.9973 70.899 99.8653 70.6497 99.792C70.415 99.7187 70.1657 99.682 69.9017 99.682C69.2417 99.682 68.809 99.8653 68.6037 100.232C68.3983 100.584 68.2957 101.112 68.2957 101.816V102.74H67.0417V101.684C67.0417 101.141 67.115 100.665 67.2617 100.254C67.4083 99.8287 67.687 99.4987 68.0977 99.264C68.5083 99.0147 69.1097 98.89 69.9017 98.89C70.7377 98.89 71.361 98.9853 71.7717 99.176C72.197 99.3667 72.4757 99.638 72.6077 99.99C72.7543 100.342 72.8277 100.76 72.8277 101.244V110H71.4857L71.4637 108.636C71.2877 109.135 70.9723 109.516 70.5177 109.78C70.063 110.029 69.5717 110.154 69.0437 110.154ZM69.5497 109.23C70.2097 109.23 70.6863 108.995 70.9797 108.526C71.2877 108.057 71.4417 107.433 71.4417 106.656V103.18C71.295 103.415 71.053 103.627 70.7157 103.818C70.3783 104.009 70.0337 104.199 69.6817 104.39C69.183 104.683 68.7943 104.991 68.5157 105.314C68.2517 105.622 68.1197 106.055 68.1197 106.612V107.47C68.1197 107.998 68.193 108.387 68.3397 108.636C68.4863 108.885 68.6697 109.047 68.8897 109.12C69.1097 109.193 69.3297 109.23 69.5497 109.23ZM78.4239 110.022C78.1012 110.022 77.8079 109.985 77.5439 109.912C77.2799 109.839 77.0526 109.721 76.8619 109.56C76.6712 109.384 76.5246 109.164 76.4219 108.9C76.3192 108.621 76.2679 108.277 76.2679 107.866V99.968H75.2999V99.264L76.3559 99.11L76.5979 97.064H77.6319V99.11H79.9859V99.968H77.6319V107.624C77.6319 108.035 77.7052 108.379 77.8519 108.658C77.9986 108.937 78.3212 109.076 78.8199 109.076C79.0252 109.076 79.2452 109.069 79.4799 109.054C79.7146 109.025 79.8832 109.01 79.9859 109.01V109.89C79.8686 109.89 79.6632 109.912 79.3699 109.956C79.0766 110 78.7612 110.022 78.4239 110.022Z" fill="#3C1900"/>
<path d="M36.3534 15.6948C36.3534 16.1241 36.2963 16.5402 36.1894 16.9357C35.764 18.5099 34.5489 19.7597 32.9954 20.2338C32.5567 20.3677 32.091 20.4397 31.6084 20.4397C28.9879 20.4397 26.8635 18.3153 26.8635 15.6948C26.8635 13.0742 28.9879 10.9498 31.6084 10.9498C34.229 10.9498 36.3534 13.0742 36.3534 15.6948Z" fill="#FAB225"/>
<path d="M40.8063 32.3385H50.7342L36.1894 16.9357C35.764 18.5099 34.5489 19.7597 32.9954 20.2338L40.8063 32.3385Z" fill="#FAB225"/>
<path d="M95.1176 15.6948C95.1176 16.1241 95.1746 16.5402 95.2815 16.9357C95.7069 18.5099 96.9221 19.7597 98.4756 20.2338C98.9143 20.3677 99.38 20.4397 99.8626 20.4397C102.483 20.4397 104.607 18.3153 104.607 15.6948C104.607 13.0742 102.483 10.9498 99.8626 10.9498C97.242 10.9498 95.1176 13.0742 95.1176 15.6948Z" fill="#FAB225"/>
<path d="M90.6647 32.3385H80.7368L95.2815 16.9357C95.7069 18.5099 96.9221 19.7597 98.4756 20.2338L90.6647 32.3385Z" fill="#FAB225"/>
<path fill-rule="evenodd" clip-rule="evenodd" d="M109.498 48.3552C109.498 36.3245 99.7457 26.5717 87.715 26.5717H43.8283C31.7175 26.5717 21.8997 36.3894 21.8997 48.5002V74.1338C21.8997 76.335 24.2994 77.696 26.1885 76.5663C33.2229 72.3599 41.2657 70.1387 49.4617 70.1387H87.715C99.7457 70.1387 109.498 60.3859 109.498 48.3552ZM86.5768 32.4116H44.2374C35.3679 32.4116 28.1777 39.6018 28.1777 48.4713C28.1777 57.3409 35.3679 64.5311 44.2374 64.5311H86.5768C95.4464 64.5311 102.637 57.3409 102.637 48.4713C102.637 39.6018 95.4464 32.4116 86.5768 32.4116Z" fill="#FAB225"/>
<mask id="mask0_15_374" style="mask-type:alpha" maskUnits="userSpaceOnUse" x="0" y="0" width="126" height="93">
<circle cx="16.2058" cy="64.5311" r="16.2058" fill="#B96426"/>
<circle cx="71.3931" cy="76.0649" r="16.2058" fill="#B96426"/>
<circle cx="108.914" cy="41.6095" r="16.2058" fill="#B96426"/>
<circle cx="31.5356" cy="21.6077" r="16.2058" fill="#B96426"/>
<circle cx="73.583" cy="16.2058" r="16.2058" fill="#B96426"/>
</mask>
<g mask="url(#mask0_15_374)">
<path d="M36.3534 15.6948C36.3534 16.1241 36.2963 16.5402 36.1894 16.9357C35.764 18.5099 34.5489 19.7597 32.9954 20.2338C32.5567 20.3677 32.091 20.4397 31.6084 20.4397C28.9879 20.4397 26.8635 18.3153 26.8635 15.6948C26.8635 13.0742 28.9879 10.9498 31.6084 10.9498C34.229 10.9498 36.3534 13.0742 36.3534 15.6948Z" fill="#B96426"/>
<path d="M40.8063 32.3385H50.7342L36.1894 16.9357C35.764 18.5099 34.5489 19.7597 32.9954 20.2338L40.8063 32.3385Z" fill="#B96426"/>
<path d="M95.1176 15.6948C95.1176 16.1241 95.1746 16.5402 95.2815 16.9357C95.7069 18.5099 96.9221 19.7597 98.4756 20.2338C98.9143 20.3677 99.38 20.4397 99.8626 20.4397C102.483 20.4397 104.607 18.3153 104.607 15.6948C104.607 13.0742 102.483 10.9498 99.8626 10.9498C97.242 10.9498 95.1176 13.0742 95.1176 15.6948Z" fill="#B96426"/>
<path d="M90.6647 32.3385H80.7368L95.2815 16.9357C95.7069 18.5099 96.9221 19.7597 98.4756 20.2338L90.6647 32.3385Z" fill="#B96426"/>
<path fill-rule="evenodd" clip-rule="evenodd" d="M109.498 48.3552C109.498 36.3245 99.7457 26.5717 87.715 26.5717H43.8283C31.7175 26.5717 21.8997 36.3894 21.8997 48.5002V74.1338C21.8997 76.335 24.2994 77.696 26.1885 76.5663C33.2229 72.3599 41.2657 70.1387 49.4617 70.1387H87.715C99.7457 70.1387 109.498 60.3859 109.498 48.3552ZM86.5768 32.4116H44.2374C35.3679 32.4116 28.1777 39.6018 28.1777 48.4713C28.1777 57.3409 35.3679 64.5311 44.2374 64.5311H86.5768C95.4464 64.5311 102.637 57.3409 102.637 48.4713C102.637 39.6018 95.4464 32.4116 86.5768 32.4116Z" fill="#B96426"/>
</g>
<path d="M47.1573 48.3983C47.1573 48.8276 47.2143 49.2437 47.3212 49.6392C47.7466 51.2134 48.9617 52.4632 50.5152 52.9373C50.954 53.0712 51.4197 53.1432 51.9022 53.1432C54.5228 53.1432 56.6472 51.0188 56.6472 48.3983C56.6472 45.7777 54.5228 43.6533 51.9022 43.6533C49.2817 43.6533 47.1573 45.7777 47.1573 48.3983Z" fill="#3C1900"/>
<path d="M74.1669 48.3983C74.1669 48.8276 74.224 49.2437 74.3309 49.6392C74.7563 51.2134 75.9714 52.4632 77.5249 52.9373C77.9636 53.0712 78.4293 53.1432 78.9119 53.1432C81.5324 53.1432 83.6568 51.0188 83.6568 48.3983C83.6568 45.7777 81.5324 43.6533 78.9119 43.6533C76.2913 43.6533 74.1669 45.7777 74.1669 48.3983Z" fill="#3C1900"/>
</svg>
