<svg width="1531" height="980" viewBox="0 0 1531 980" fill="none" xmlns="http://www.w3.org/2000/svg">
<circle cx="92.317" cy="95.0592" r="92.317" fill="black" fill-opacity="0.02"/>
<circle cx="398.517" cy="229.422" r="92.317" fill="black" fill-opacity="0.02"/>
<circle cx="317.168" cy="867.415" r="92.317" fill="black" fill-opacity="0.02"/>
<circle cx="159.041" cy="737.622" r="46.6155" fill="black" fill-opacity="0.02"/>
<circle cx="1457.88" cy="393.033" r="46.6155" fill="black" fill-opacity="0.02"/>
<circle cx="956.075" cy="581.323" r="32.9051" fill="black" fill-opacity="0.02"/>
<circle cx="523.739" cy="751.333" r="32.9051" fill="black" fill-opacity="0.02"/>
<circle cx="490.834" cy="361.956" r="32.9051" fill="black" fill-opacity="0.02"/>
<circle cx="317.168" cy="48.4436" r="32.9051" fill="black" fill-opacity="0.02"/>
<circle cx="59.4119" cy="606.002" r="32.9051" fill="black" fill-opacity="0.02"/>
<circle cx="1217.49" cy="834.509" r="32.9051" fill="black" fill-opacity="0.02"/>
<circle cx="1273.24" cy="412.227" r="32.9051" fill="black" fill-opacity="0.02"/>
<circle cx="966.13" cy="167.268" r="32.9051" fill="black" fill-opacity="0.02"/>
<circle cx="890.265" cy="35.6473" r="32.9051" fill="black" fill-opacity="0.02"/>
<circle cx="826.283" cy="478.038" r="32.9051" fill="black" fill-opacity="0.02"/>
<circle cx="693.749" cy="734.88" r="16.4525" fill="black" fill-opacity="0.02"/>
<circle cx="523.739" cy="630.681" r="16.4525" fill="black" fill-opacity="0.02"/>
<circle cx="346.417" cy="707.459" r="16.4525" fill="black" fill-opacity="0.02"/>
<circle cx="277.865" cy="582.237" r="16.4525" fill="black" fill-opacity="0.02"/>
<circle cx="112.426" cy="841.822" r="16.4525" fill="black" fill-opacity="0.02"/>
<circle cx="350.073" cy="409.485" r="16.4525" fill="black" fill-opacity="0.02"/>
<circle cx="108.77" cy="263.241" r="16.4525" fill="black" fill-opacity="0.02"/>
<circle cx="247.702" cy="117.91" r="16.4525" fill="black" fill-opacity="0.02"/>
<circle cx="472.553" cy="91.4032" r="16.4525" fill="black" fill-opacity="0.02"/>
<circle cx="609.658" cy="212.969" r="16.4525" fill="black" fill-opacity="0.02"/>
<circle cx="842.735" cy="263.241" r="16.4525" fill="black" fill-opacity="0.02"/>
<circle cx="857.36" cy="615.142" r="16.4525" fill="black" fill-opacity="0.02"/>
<circle cx="851.876" cy="683.695" r="9.1403" fill="black" fill-opacity="0.02"/>
<circle cx="679.124" cy="843.65" r="9.1403" fill="black" fill-opacity="0.02"/>
<circle cx="481.694" cy="849.134" r="9.1403" fill="black" fill-opacity="0.02"/>
<circle cx="446.961" cy="674.554" r="9.1403" fill="black" fill-opacity="0.02"/>
<circle cx="162.697" cy="621.54" r="9.1403" fill="black" fill-opacity="0.02"/>
<circle cx="537.45" cy="467.984" r="9.1403" fill="black" fill-opacity="0.02"/>
<circle cx="546.59" cy="167.267" r="9.1403" fill="black" fill-opacity="0.02"/>
<circle cx="716.599" cy="274.209" r="9.1403" fill="black" fill-opacity="0.02"/>
<circle cx="576.753" cy="302.544" r="9.1403" fill="black" fill-opacity="0.02"/>
<circle cx="261.413" cy="346.418" r="9.1403" fill="black" fill-opacity="0.02"/>
<circle cx="308.028" cy="127.964" r="9.1403" fill="black" fill-opacity="0.02"/>
<circle cx="786.066" cy="346.418" r="9.1403" fill="black" fill-opacity="0.02"/>
<circle cx="933.225" cy="246.788" r="9.1403" fill="black" fill-opacity="0.02"/>
<circle cx="1018.23" cy="84.091" r="9.1403" fill="black" fill-opacity="0.02"/>
<circle cx="1208.35" cy="167.267" r="9.1403" fill="black" fill-opacity="0.02"/>
<circle cx="1153.51" cy="393.033" r="9.1403" fill="black" fill-opacity="0.02"/>
<circle cx="1051.13" cy="501.802" r="9.1403" fill="black" fill-opacity="0.02"/>
<circle cx="1108.72" cy="648.047" r="9.1403" fill="black" fill-opacity="0.02"/>
<circle cx="924.084" cy="751.332" r="9.1403" fill="black" fill-opacity="0.02"/>
<circle cx="1090.44" cy="756.817" r="9.1403" fill="black" fill-opacity="0.02"/>
<circle cx="1273.24" cy="761.387" r="9.1403" fill="black" fill-opacity="0.02"/>
<circle cx="1297.01" cy="880.211" r="9.1403" fill="black" fill-opacity="0.02"/>
<circle cx="1438.68" cy="784.238" r="9.1403" fill="black" fill-opacity="0.02"/>
<circle cx="1147.11" cy="889.351" r="9.1403" fill="black" fill-opacity="0.02"/>
<circle cx="882.953" cy="889.351" r="9.1403" fill="black" fill-opacity="0.02"/>
<circle cx="1359.16" cy="435.992" r="9.1403" fill="black" fill-opacity="0.02"/>
<circle cx="1441.43" cy="265.069" r="9.1403" fill="black" fill-opacity="0.02"/>
<circle cx="1467.02" cy="141.675" r="9.1403" fill="black" fill-opacity="0.02"/>
<circle cx="923.17" cy="486.264" r="9.1403" fill="black" fill-opacity="0.02"/>
<circle cx="1025.54" cy="701.975" r="16.4525" fill="black" fill-opacity="0.02"/>
<circle cx="776.925" cy="896.663" r="16.4525" fill="black" fill-opacity="0.02"/>
<circle cx="1169.96" cy="754.075" r="16.4525" fill="black" fill-opacity="0.02"/>
<circle cx="1156.25" cy="531.966" r="16.4525" fill="black" fill-opacity="0.02"/>
<circle cx="1349.11" cy="299.802" r="16.4525" fill="black" fill-opacity="0.02"/>
<circle cx="1101.41" cy="150.815" r="16.4525" fill="black" fill-opacity="0.02"/>
<circle cx="1365.56" cy="749.505" r="16.4525" fill="black" fill-opacity="0.02"/>
<circle cx="1454.22" cy="44.787" r="16.4525" fill="black" fill-opacity="0.02"/>
<circle cx="593.205" cy="913.116" r="46.6155" fill="black" fill-opacity="0.02"/>
<circle cx="409.485" cy="548.418" r="46.6155" fill="black" fill-opacity="0.02"/>
<circle cx="1153.51" cy="46.6155" r="46.6155" fill="black" fill-opacity="0.02"/>
<circle cx="1217.49" cy="652.617" r="46.6155" fill="black" fill-opacity="0.02"/>
<circle cx="1156.25" cy="265.069" r="46.6155" fill="black" fill-opacity="0.02"/>
<circle cx="576.753" cy="61.24" r="46.6155" fill="black" fill-opacity="0.02"/>
<circle cx="669.984" cy="375.666" r="46.6155" fill="black" fill-opacity="0.02"/>
<circle cx="231.25" cy="246.788" r="46.6155" fill="black" fill-opacity="0.02"/>
<circle cx="826.283" cy="798.862" r="46.6155" fill="black" fill-opacity="0.02"/>
<circle cx="1025.54" cy="858.274" r="92.317" fill="black" fill-opacity="0.02"/>
<circle cx="1365.56" cy="598.69" r="92.317" fill="black" fill-opacity="0.02"/>
<circle cx="1438.68" cy="913.116" r="92.317" fill="black" fill-opacity="0.02"/>
<circle cx="1349.11" cy="134.362" r="92.317" fill="black" fill-opacity="0.02"/>
<circle cx="988.98" cy="375.666" r="92.317" fill="black" fill-opacity="0.02"/>
<circle cx="669.984" cy="560.3" r="92.317" fill="black" fill-opacity="0.02"/>
<circle cx="743.106" cy="107.856" r="92.317" fill="black" fill-opacity="0.02"/>
<circle cx="171.838" cy="439.649" r="92.317" fill="black" fill-opacity="0.02"/>
</svg>
