<svg width="708" height="510" viewBox="0 0 708 510" fill="none" xmlns="http://www.w3.org/2000/svg">
<g filter="url(#filter0_d_15_131)">
<ellipse cx="354" cy="460.942" rx="350" ry="41" fill="#F5F5F5"/>
<path d="M70.0616 24.9367C53.493 24.9367 40.0616 38.3681 40.0616 54.9367V291.059C40.0616 307.628 53.493 321.059 70.0616 321.059H519.037C535.605 321.059 549.037 307.628 549.037 291.059V54.9366C549.037 38.3681 535.605 24.9367 519.037 24.9367H70.0616Z" fill="white"/>
<path fill-rule="evenodd" clip-rule="evenodd" d="M578.426 30C578.426 13.4315 564.995 0 548.426 0H44.6796C28.1111 0 14.6796 13.4314 14.6796 30V346.887H578.426V30ZM70.0616 321.059C53.493 321.059 40.0616 307.628 40.0616 291.059V54.9367C40.0616 38.3681 53.493 24.9367 70.0616 24.9367H519.037C535.605 24.9367 549.037 38.3681 549.037 54.9366V291.059C549.037 307.628 535.605 321.059 519.037 321.059H70.0616Z" fill="#B96426"/>
<path d="M14.6796 346.887V369.877C14.6796 386.446 28.1111 399.877 44.6796 399.877H235.992H365.574H548.426C564.995 399.877 578.426 386.446 578.426 369.877V346.887H14.6796Z" fill="#FAB225"/>
<path d="M385.552 457.276C373.577 453.032 365.574 441.705 365.574 429V399.877H235.992V429C235.992 441.705 227.99 453.032 216.014 457.276L211.775 458.779C209.657 459.53 210.196 462.664 212.444 462.664H389.123C391.37 462.664 391.909 459.53 389.791 458.779L385.552 457.276Z" fill="#FAB225"/>
<path d="M235.992 399.377H235.492H44.6796C28.3872 399.377 15.1796 386.169 15.1796 369.877V347.387H577.926V369.877C577.926 386.169 564.719 399.377 548.426 399.377H366.074H365.574H235.992ZM577.926 346.387H15.1796V30C15.1796 13.7076 28.3872 0.5 44.6796 0.5H548.426C564.719 0.5 577.926 13.7076 577.926 30V346.387ZM70.0616 24.4367C53.2169 24.4367 39.5616 38.092 39.5616 54.9367V291.059C39.5616 307.904 53.2169 321.559 70.0616 321.559H519.037C535.881 321.559 549.537 307.904 549.537 291.059V54.9366C549.537 38.0919 535.881 24.4367 519.037 24.4367H70.0616ZM40.5616 54.9367C40.5616 38.6443 53.7692 25.4367 70.0616 25.4367H519.037C535.329 25.4367 548.537 38.6442 548.537 54.9366V291.059C548.537 307.352 535.329 320.559 519.037 320.559H70.0616C53.7692 320.559 40.5616 307.352 40.5616 291.059V54.9367ZM365.074 429C365.074 441.917 373.21 453.433 385.385 457.748L389.624 459.25C391.213 459.813 390.808 462.164 389.123 462.164H212.444C210.758 462.164 210.354 459.813 211.943 459.25L216.182 457.748C228.356 453.433 236.492 441.917 236.492 429V400.377H365.074V429Z" stroke="black"/>
<path d="M286.459 126.278V98.2783H311.219V126.278H306.099V101.398L307.299 102.678H290.379L291.579 101.398V126.278H286.459ZM328.794 126.558C327.061 126.558 325.474 126.158 324.034 125.358C322.621 124.558 321.487 123.358 320.634 121.758C319.807 120.132 319.394 118.078 319.394 115.598C319.394 113.092 319.794 111.038 320.594 109.438C321.421 107.838 322.541 106.652 323.954 105.878C325.367 105.078 326.981 104.678 328.794 104.678C330.901 104.678 332.754 105.132 334.354 106.038C335.981 106.945 337.261 108.212 338.194 109.838C339.154 111.465 339.634 113.385 339.634 115.598C339.634 117.812 339.154 119.745 338.194 121.398C337.261 123.025 335.981 124.292 334.354 125.198C332.754 126.105 330.901 126.558 328.794 126.558ZM316.954 134.038V104.918H321.714V109.958L321.554 115.638L321.954 121.318V134.038H316.954ZM328.234 122.278C329.434 122.278 330.501 122.012 331.434 121.478C332.394 120.945 333.154 120.172 333.714 119.158C334.274 118.145 334.554 116.958 334.554 115.598C334.554 114.212 334.274 113.025 333.714 112.038C333.154 111.025 332.394 110.252 331.434 109.718C330.501 109.185 329.434 108.918 328.234 108.918C327.034 108.918 325.954 109.185 324.994 109.718C324.034 110.252 323.274 111.025 322.714 112.038C322.154 113.025 321.874 114.212 321.874 115.598C321.874 116.958 322.154 118.145 322.714 119.158C323.274 120.172 324.034 120.945 324.994 121.478C325.954 122.012 327.034 122.278 328.234 122.278ZM343.01 126.278V104.918H348.01V118.998L359.81 104.918H364.37V126.278H359.37V112.198L347.61 126.278H343.01ZM369.496 126.278V104.918H379.936C382.523 104.918 384.55 105.398 386.016 106.358C387.51 107.318 388.256 108.678 388.256 110.438C388.256 112.172 387.563 113.532 386.176 114.518C384.79 115.478 382.95 115.958 380.656 115.958L381.256 114.718C383.843 114.718 385.763 115.198 387.016 116.158C388.296 117.092 388.936 118.465 388.936 120.278C388.936 122.172 388.23 123.652 386.816 124.718C385.403 125.758 383.256 126.278 380.376 126.278H369.496ZM374.256 122.638H379.976C381.336 122.638 382.363 122.425 383.056 121.998C383.75 121.545 384.096 120.865 384.096 119.958C384.096 118.998 383.776 118.292 383.136 117.838C382.496 117.385 381.496 117.158 380.136 117.158H374.256V122.638ZM374.256 113.838H379.496C380.776 113.838 381.736 113.612 382.376 113.158C383.043 112.678 383.376 112.012 383.376 111.158C383.376 110.278 383.043 109.625 382.376 109.198C381.736 108.772 380.776 108.558 379.496 108.558H374.256V113.838ZM402.622 126.558C400.249 126.558 398.169 126.092 396.382 125.158C394.622 124.198 393.249 122.892 392.262 121.238C391.302 119.585 390.822 117.705 390.822 115.598C390.822 113.465 391.289 111.585 392.222 109.958C393.182 108.305 394.489 107.012 396.142 106.078C397.822 105.145 399.729 104.678 401.862 104.678C403.942 104.678 405.795 105.132 407.422 106.038C409.049 106.945 410.329 108.225 411.262 109.878C412.195 111.532 412.662 113.478 412.662 115.718C412.662 115.932 412.649 116.172 412.622 116.438C412.622 116.705 412.609 116.958 412.582 117.198H394.782V113.878H409.942L407.982 114.918C408.009 113.692 407.755 112.612 407.222 111.678C406.689 110.745 405.955 110.012 405.022 109.478C404.115 108.945 403.062 108.678 401.862 108.678C400.635 108.678 399.555 108.945 398.622 109.478C397.715 110.012 396.995 110.758 396.462 111.718C395.955 112.652 395.702 113.758 395.702 115.038V115.838C395.702 117.118 395.995 118.252 396.582 119.238C397.169 120.225 397.995 120.985 399.062 121.518C400.129 122.052 401.355 122.318 402.742 122.318C403.942 122.318 405.022 122.132 405.982 121.758C406.942 121.385 407.795 120.798 408.542 119.998L411.222 123.078C410.262 124.198 409.049 125.065 407.582 125.678C406.142 126.265 404.489 126.558 402.622 126.558ZM420.15 126.278V107.958L421.31 109.158H412.63V104.918H432.63V109.158H423.99L425.15 107.958V126.278H420.15ZM434.897 116.998L433.937 98.2783H439.857L438.857 116.998H434.897ZM436.897 126.558C435.964 126.558 435.191 126.252 434.577 125.638C433.964 125.025 433.657 124.292 433.657 123.438C433.657 122.585 433.964 121.865 434.577 121.278C435.191 120.665 435.964 120.358 436.897 120.358C437.831 120.358 438.591 120.665 439.177 121.278C439.764 121.865 440.057 122.585 440.057 123.438C440.057 124.292 439.764 125.025 439.177 125.638C438.591 126.252 437.831 126.558 436.897 126.558ZM207.047 175.678C204.914 175.678 202.927 175.332 201.087 174.638C199.274 173.918 197.687 172.918 196.327 171.638C194.994 170.332 193.954 168.798 193.207 167.038C192.461 165.278 192.087 163.358 192.087 161.278C192.087 159.198 192.461 157.278 193.207 155.518C193.954 153.758 195.007 152.238 196.367 150.958C197.727 149.652 199.314 148.652 201.127 147.958C202.941 147.238 204.927 146.878 207.087 146.878C209.381 146.878 211.474 147.278 213.367 148.078C215.261 148.852 216.861 150.012 218.167 151.558L214.807 154.718C213.794 153.625 212.661 152.812 211.407 152.278C210.154 151.718 208.794 151.438 207.327 151.438C205.861 151.438 204.514 151.678 203.287 152.158C202.087 152.638 201.034 153.318 200.127 154.198C199.247 155.078 198.554 156.118 198.047 157.318C197.567 158.518 197.327 159.838 197.327 161.278C197.327 162.718 197.567 164.038 198.047 165.238C198.554 166.438 199.247 167.478 200.127 168.358C201.034 169.238 202.087 169.918 203.287 170.398C204.514 170.878 205.861 171.118 207.327 171.118C208.794 171.118 210.154 170.852 211.407 170.318C212.661 169.758 213.794 168.918 214.807 167.798L218.167 170.998C216.861 172.518 215.261 173.678 213.367 174.478C211.474 175.278 209.367 175.678 207.047 175.678ZM230.29 175.278V153.918H240.73C243.317 153.918 245.343 154.398 246.81 155.358C248.303 156.318 249.05 157.678 249.05 159.438C249.05 161.172 248.357 162.532 246.97 163.518C245.583 164.478 243.743 164.958 241.45 164.958L242.05 163.718C244.637 163.718 246.557 164.198 247.81 165.158C249.09 166.092 249.73 167.465 249.73 169.278C249.73 171.172 249.023 172.652 247.61 173.718C246.197 174.758 244.05 175.278 241.17 175.278H230.29ZM235.05 171.638H240.77C242.13 171.638 243.157 171.425 243.85 170.998C244.543 170.545 244.89 169.865 244.89 168.958C244.89 167.998 244.57 167.292 243.93 166.838C243.29 166.385 242.29 166.158 240.93 166.158H235.05V171.638ZM235.05 162.838H240.29C241.57 162.838 242.53 162.612 243.17 162.158C243.837 161.678 244.17 161.012 244.17 160.158C244.17 159.278 243.837 158.625 243.17 158.198C242.53 157.772 241.57 157.558 240.29 157.558H235.05V162.838ZM262.976 175.558C260.789 175.558 258.842 175.092 257.136 174.158C255.429 173.198 254.082 171.892 253.096 170.238C252.109 168.585 251.616 166.705 251.616 164.598C251.616 162.465 252.109 160.585 253.096 158.958C254.082 157.305 255.429 156.012 257.136 155.078C258.842 154.145 260.789 153.678 262.976 153.678C265.189 153.678 267.149 154.145 268.856 155.078C270.589 156.012 271.936 157.292 272.896 158.918C273.882 160.545 274.376 162.438 274.376 164.598C274.376 166.705 273.882 168.585 272.896 170.238C271.936 171.892 270.589 173.198 268.856 174.158C267.149 175.092 265.189 175.558 262.976 175.558ZM262.976 171.278C264.202 171.278 265.296 171.012 266.256 170.478C267.216 169.945 267.962 169.172 268.496 168.158C269.056 167.145 269.336 165.958 269.336 164.598C269.336 163.212 269.056 162.025 268.496 161.038C267.962 160.025 267.216 159.252 266.256 158.718C265.296 158.185 264.216 157.918 263.016 157.918C261.789 157.918 260.696 158.185 259.736 158.718C258.802 159.252 258.056 160.025 257.496 161.038C256.936 162.025 256.656 163.212 256.656 164.598C256.656 165.958 256.936 167.145 257.496 168.158C258.056 169.172 258.802 169.945 259.736 170.478C260.696 171.012 261.776 171.278 262.976 171.278ZM284.163 175.638C282.536 175.638 280.923 175.452 279.323 175.078C277.749 174.678 276.323 174.118 275.043 173.398L276.443 169.678C277.483 170.265 278.656 170.718 279.963 171.038C281.269 171.358 282.576 171.518 283.883 171.518C285.003 171.518 285.963 171.412 286.763 171.198C287.563 170.958 288.176 170.612 288.603 170.158C289.056 169.705 289.283 169.185 289.283 168.598C289.283 167.745 288.909 167.105 288.163 166.678C287.443 166.225 286.403 165.998 285.043 165.998H280.923V162.638H284.643C285.496 162.638 286.216 162.545 286.803 162.358C287.416 162.172 287.883 161.892 288.203 161.518C288.523 161.145 288.683 160.705 288.683 160.198C288.683 159.692 288.483 159.252 288.083 158.878C287.709 158.478 287.163 158.185 286.443 157.998C285.723 157.785 284.856 157.678 283.843 157.678C282.776 157.678 281.669 157.812 280.523 158.078C279.403 158.345 278.256 158.732 277.083 159.238L275.803 155.558C277.163 154.945 278.483 154.478 279.763 154.158C281.069 153.812 282.363 153.625 283.643 153.598C285.589 153.518 287.323 153.718 288.843 154.198C290.363 154.678 291.563 155.372 292.443 156.278C293.323 157.185 293.763 158.252 293.763 159.478C293.763 160.492 293.443 161.412 292.803 162.238C292.189 163.038 291.336 163.665 290.243 164.118C289.176 164.572 287.949 164.798 286.563 164.798L286.723 163.718C289.096 163.718 290.963 164.198 292.323 165.158C293.683 166.092 294.363 167.372 294.363 168.998C294.363 170.305 293.923 171.465 293.043 172.478C292.163 173.465 290.949 174.238 289.403 174.798C287.883 175.358 286.136 175.638 284.163 175.638ZM297.912 175.278V153.918H308.352C310.939 153.918 312.965 154.398 314.432 155.358C315.925 156.318 316.672 157.678 316.672 159.438C316.672 161.172 315.979 162.532 314.592 163.518C313.205 164.478 311.365 164.958 309.072 164.958L309.672 163.718C312.259 163.718 314.179 164.198 315.432 165.158C316.712 166.092 317.352 167.465 317.352 169.278C317.352 171.172 316.645 172.652 315.232 173.718C313.819 174.758 311.672 175.278 308.792 175.278H297.912ZM302.672 171.638H308.392C309.752 171.638 310.779 171.425 311.472 170.998C312.165 170.545 312.512 169.865 312.512 168.958C312.512 167.998 312.192 167.292 311.552 166.838C310.912 166.385 309.912 166.158 308.552 166.158H302.672V171.638ZM302.672 162.838H307.912C309.192 162.838 310.152 162.612 310.792 162.158C311.459 161.678 311.792 161.012 311.792 160.158C311.792 159.278 311.459 158.625 310.792 158.198C310.152 157.772 309.192 157.558 307.912 157.558H302.672V162.838ZM332.918 175.558C331.184 175.558 329.598 175.158 328.158 174.358C326.744 173.558 325.611 172.358 324.758 170.758C323.931 169.132 323.518 167.078 323.518 164.598C323.518 162.092 323.918 160.038 324.718 158.438C325.544 156.838 326.664 155.652 328.078 154.878C329.491 154.078 331.104 153.678 332.918 153.678C335.024 153.678 336.878 154.132 338.478 155.038C340.104 155.945 341.384 157.212 342.318 158.838C343.278 160.465 343.758 162.385 343.758 164.598C343.758 166.812 343.278 168.745 342.318 170.398C341.384 172.025 340.104 173.292 338.478 174.198C336.878 175.105 335.024 175.558 332.918 175.558ZM321.078 183.038V153.918H325.838V158.958L325.678 164.638L326.078 170.318V183.038H321.078ZM332.358 171.278C333.558 171.278 334.624 171.012 335.558 170.478C336.518 169.945 337.278 169.172 337.838 168.158C338.398 167.145 338.678 165.958 338.678 164.598C338.678 163.212 338.398 162.025 337.838 161.038C337.278 160.025 336.518 159.252 335.558 158.718C334.624 158.185 333.558 157.918 332.358 157.918C331.158 157.918 330.078 158.185 329.118 158.718C328.158 159.252 327.398 160.025 326.838 161.038C326.278 162.025 325.998 163.212 325.998 164.598C325.998 165.958 326.278 167.145 326.838 168.158C327.398 169.172 328.158 169.945 329.118 170.478C330.078 171.012 331.158 171.278 332.358 171.278ZM359.82 175.278V170.958L359.54 170.038V162.478C359.54 161.012 359.1 159.878 358.22 159.078C357.34 158.252 356.007 157.838 354.22 157.838C353.02 157.838 351.834 158.025 350.66 158.398C349.514 158.772 348.54 159.292 347.74 159.958L345.78 156.318C346.927 155.438 348.287 154.785 349.86 154.358C351.46 153.905 353.114 153.678 354.82 153.678C357.914 153.678 360.3 154.425 361.98 155.918C363.687 157.385 364.54 159.665 364.54 162.758V175.278H359.82ZM353.1 175.558C351.5 175.558 350.1 175.292 348.9 174.758C347.7 174.198 346.767 173.438 346.1 172.478C345.46 171.492 345.14 170.385 345.14 169.158C345.14 167.958 345.42 166.878 345.98 165.918C346.567 164.958 347.514 164.198 348.82 163.638C350.127 163.078 351.86 162.798 354.02 162.798H360.22V166.118H354.38C352.674 166.118 351.527 166.398 350.94 166.958C350.354 167.492 350.06 168.158 350.06 168.958C350.06 169.865 350.42 170.585 351.14 171.118C351.86 171.652 352.86 171.918 354.14 171.918C355.367 171.918 356.46 171.638 357.42 171.078C358.407 170.518 359.114 169.692 359.54 168.598L360.38 171.598C359.9 172.852 359.034 173.825 357.78 174.518C356.554 175.212 354.994 175.558 353.1 175.558ZM383.488 171.038L382.408 172.238V153.918H387.408V172.238L386.208 171.038H396.768L395.608 172.238V153.918H400.608V175.278H369.128V153.918H374.128V172.238L372.968 171.038H383.488ZM399.008 179.678V174.038L400.168 175.278H395.448V171.038H403.688V179.678H399.008ZM415.691 175.558C413.317 175.558 411.237 175.092 409.451 174.158C407.691 173.198 406.317 171.892 405.331 170.238C404.371 168.585 403.891 166.705 403.891 164.598C403.891 162.465 404.357 160.585 405.291 158.958C406.251 157.305 407.557 156.012 409.211 155.078C410.891 154.145 412.797 153.678 414.931 153.678C417.011 153.678 418.864 154.132 420.491 155.038C422.117 155.945 423.397 157.225 424.331 158.878C425.264 160.532 425.731 162.478 425.731 164.718C425.731 164.932 425.717 165.172 425.691 165.438C425.691 165.705 425.677 165.958 425.651 166.198H407.851V162.878H423.011L421.051 163.918C421.077 162.692 420.824 161.612 420.291 160.678C419.757 159.745 419.024 159.012 418.091 158.478C417.184 157.945 416.131 157.678 414.931 157.678C413.704 157.678 412.624 157.945 411.691 158.478C410.784 159.012 410.064 159.758 409.531 160.718C409.024 161.652 408.771 162.758 408.771 164.038V164.838C408.771 166.118 409.064 167.252 409.651 168.238C410.237 169.225 411.064 169.985 412.131 170.518C413.197 171.052 414.424 171.318 415.811 171.318C417.011 171.318 418.091 171.132 419.051 170.758C420.011 170.385 420.864 169.798 421.611 168.998L424.291 172.078C423.331 173.198 422.117 174.065 420.651 174.678C419.211 175.265 417.557 175.558 415.691 175.558ZM429.599 175.278V153.918H434.599V162.598H445.359V153.918H450.359V175.278H445.359V166.838H434.599V175.278H429.599ZM455.46 175.278V153.918H460.46V167.998L472.26 153.918H476.82V175.278H471.82V161.198L460.06 175.278H455.46ZM491.906 175.558C489.533 175.558 487.453 175.092 485.666 174.158C483.906 173.198 482.533 171.892 481.546 170.238C480.586 168.585 480.106 166.705 480.106 164.598C480.106 162.465 480.573 160.585 481.506 158.958C482.466 157.305 483.773 156.012 485.426 155.078C487.106 154.145 489.013 153.678 491.146 153.678C493.226 153.678 495.08 154.132 496.706 155.038C498.333 155.945 499.613 157.225 500.546 158.878C501.48 160.532 501.946 162.478 501.946 164.718C501.946 164.932 501.933 165.172 501.906 165.438C501.906 165.705 501.893 165.958 501.866 166.198H484.066V162.878H499.226L497.266 163.918C497.293 162.692 497.04 161.612 496.506 160.678C495.973 159.745 495.24 159.012 494.306 158.478C493.4 157.945 492.346 157.678 491.146 157.678C489.92 157.678 488.84 157.945 487.906 158.478C487 159.012 486.28 159.758 485.746 160.718C485.24 161.652 484.986 162.758 484.986 164.038V164.838C484.986 166.118 485.28 167.252 485.866 168.238C486.453 169.225 487.28 169.985 488.346 170.518C489.413 171.052 490.64 171.318 492.026 171.318C493.226 171.318 494.306 171.132 495.266 170.758C496.226 170.385 497.08 169.798 497.826 168.998L500.506 172.078C499.546 173.198 498.333 174.065 496.866 174.678C495.426 175.265 493.773 175.558 491.906 175.558ZM505.815 175.278V153.918H511.055L519.655 169.078H517.575L526.615 153.918H531.295L531.335 175.278H526.815V159.278L527.615 159.798L519.615 173.038H517.455L509.415 159.438L510.375 159.198V175.278H505.815Z" fill="black" fill-opacity="0.5"/>
<g filter="url(#filter1_d_15_131)">
<path fill-rule="evenodd" clip-rule="evenodd" d="M357.724 239.125C341.155 239.125 327.724 252.556 327.724 269.125V403.274C327.724 419.843 341.155 433.274 357.724 433.274H598.299C614.868 433.274 628.299 419.843 628.299 403.274V269.125C628.299 252.556 614.868 239.125 598.299 239.125H357.724Z" fill="white"/>
<path fill-rule="evenodd" clip-rule="evenodd" d="M305.014 241.961C305.014 225.393 318.445 211.961 335.014 211.961H623.236C639.805 211.961 653.236 225.393 653.236 241.961V432.219C653.236 448.787 639.805 462.219 623.236 462.219H335.014C318.445 462.219 305.014 448.787 305.014 432.219V241.961ZM357.724 433.274C341.155 433.274 327.724 419.843 327.724 403.274V269.125C327.724 252.556 341.155 239.125 357.724 239.125H598.299C614.868 239.125 628.299 252.556 628.299 269.125V403.274C628.299 419.843 614.868 433.274 598.299 433.274H357.724Z" fill="#FAB225"/>
<path d="M357.724 238.625C340.879 238.625 327.224 252.28 327.224 269.125V403.274C327.224 420.119 340.879 433.774 357.724 433.774H598.299C615.144 433.774 628.799 420.119 628.799 403.274V269.125C628.799 252.28 615.144 238.625 598.299 238.625H357.724ZM328.224 269.125C328.224 252.832 341.431 239.625 357.724 239.625H598.299C614.592 239.625 627.799 252.832 627.799 269.125V403.274C627.799 419.567 614.592 432.774 598.299 432.774H357.724C341.431 432.774 328.224 419.567 328.224 403.274V269.125ZM305.514 241.961C305.514 225.669 318.721 212.461 335.014 212.461H623.236C639.528 212.461 652.736 225.669 652.736 241.961V432.219C652.736 448.511 639.528 461.719 623.236 461.719H335.014C318.721 461.719 305.514 448.511 305.514 432.219V241.961Z" stroke="#3C1900"/>
</g>
<path d="M485.033 322.693V308.693H497.413V322.693H494.853V310.253L495.453 310.893H486.993L487.593 310.253V322.693H485.033ZM507.001 322.833C506.134 322.833 505.341 322.633 504.621 322.233C503.914 321.833 503.347 321.233 502.921 320.433C502.507 319.62 502.301 318.593 502.301 317.353C502.301 316.1 502.501 315.073 502.901 314.273C503.314 313.473 503.874 312.88 504.581 312.493C505.287 312.093 506.094 311.893 507.001 311.893C508.054 311.893 508.981 312.12 509.781 312.573C510.594 313.026 511.234 313.66 511.701 314.473C512.181 315.286 512.421 316.246 512.421 317.353C512.421 318.46 512.181 319.426 511.701 320.253C511.234 321.066 510.594 321.7 509.781 322.153C508.981 322.606 508.054 322.833 507.001 322.833ZM501.081 326.573V312.013H503.461V314.533L503.381 317.373L503.581 320.213V326.573H501.081ZM506.721 320.693C507.321 320.693 507.854 320.56 508.321 320.293C508.801 320.026 509.181 319.64 509.461 319.133C509.741 318.626 509.881 318.033 509.881 317.353C509.881 316.66 509.741 316.066 509.461 315.573C509.181 315.066 508.801 314.68 508.321 314.413C507.854 314.146 507.321 314.013 506.721 314.013C506.121 314.013 505.581 314.146 505.101 314.413C504.621 314.68 504.241 315.066 503.961 315.573C503.681 316.066 503.541 316.66 503.541 317.353C503.541 318.033 503.681 318.626 503.961 319.133C504.241 319.64 504.621 320.026 505.101 320.293C505.581 320.56 506.121 320.693 506.721 320.693ZM514.909 322.693V312.013H517.409V319.053L523.309 312.013H525.589V322.693H523.089V315.653L517.209 322.693H514.909ZM528.952 322.693V312.013H534.172C535.465 312.013 536.478 312.253 537.212 312.733C537.958 313.213 538.332 313.893 538.332 314.773C538.332 315.64 537.985 316.32 537.292 316.813C536.598 317.293 535.678 317.533 534.532 317.533L534.832 316.913C536.125 316.913 537.085 317.153 537.712 317.633C538.352 318.1 538.672 318.786 538.672 319.693C538.672 320.64 538.318 321.38 537.612 321.913C536.905 322.433 535.832 322.693 534.392 322.693H528.952ZM531.332 320.873H534.192C534.872 320.873 535.385 320.766 535.732 320.553C536.078 320.326 536.252 319.986 536.252 319.533C536.252 319.053 536.092 318.7 535.772 318.473C535.452 318.246 534.952 318.133 534.272 318.133H531.332V320.873ZM531.332 316.473H533.952C534.592 316.473 535.072 316.36 535.392 316.133C535.725 315.893 535.892 315.56 535.892 315.133C535.892 314.693 535.725 314.366 535.392 314.153C535.072 313.94 534.592 313.833 533.952 313.833H531.332V316.473ZM546.314 322.833C545.128 322.833 544.088 322.6 543.194 322.133C542.314 321.653 541.628 321 541.134 320.173C540.654 319.346 540.414 318.406 540.414 317.353C540.414 316.286 540.648 315.346 541.114 314.533C541.594 313.706 542.248 313.06 543.074 312.593C543.914 312.126 544.868 311.893 545.934 311.893C546.974 311.893 547.901 312.12 548.714 312.573C549.528 313.026 550.168 313.666 550.634 314.493C551.101 315.32 551.334 316.293 551.334 317.413C551.334 317.52 551.328 317.64 551.314 317.773C551.314 317.906 551.308 318.033 551.294 318.153H542.394V316.493H549.974L548.994 317.013C549.008 316.4 548.881 315.86 548.614 315.393C548.348 314.926 547.981 314.56 547.514 314.293C547.061 314.026 546.534 313.893 545.934 313.893C545.321 313.893 544.781 314.026 544.314 314.293C543.861 314.56 543.501 314.933 543.234 315.413C542.981 315.88 542.854 316.433 542.854 317.073V317.473C542.854 318.113 543.001 318.68 543.294 319.173C543.588 319.666 544.001 320.046 544.534 320.313C545.068 320.58 545.681 320.713 546.374 320.713C546.974 320.713 547.514 320.62 547.994 320.433C548.474 320.246 548.901 319.953 549.274 319.553L550.614 321.093C550.134 321.653 549.528 322.086 548.794 322.393C548.074 322.686 547.248 322.833 546.314 322.833ZM555.879 322.693V313.533L556.459 314.133H552.119V312.013H562.119V314.133H557.799L558.379 313.533V322.693H555.879ZM564.052 318.053L563.572 308.693H566.532L566.032 318.053H564.052ZM565.052 322.833C564.585 322.833 564.199 322.68 563.892 322.373C563.585 322.066 563.432 321.7 563.432 321.273C563.432 320.846 563.585 320.486 563.892 320.193C564.199 319.886 564.585 319.733 565.052 319.733C565.519 319.733 565.899 319.886 566.192 320.193C566.485 320.486 566.632 320.846 566.632 321.273C566.632 321.7 566.485 322.066 566.192 322.373C565.899 322.68 565.519 322.833 565.052 322.833ZM442.527 346.893C441.46 346.893 440.467 346.72 439.547 346.373C438.64 346.013 437.847 345.513 437.167 344.873C436.5 344.22 435.98 343.453 435.607 342.573C435.234 341.693 435.047 340.733 435.047 339.693C435.047 338.653 435.234 337.693 435.607 336.813C435.98 335.933 436.507 335.173 437.187 334.533C437.867 333.88 438.66 333.38 439.567 333.033C440.474 332.673 441.467 332.493 442.547 332.493C443.694 332.493 444.74 332.693 445.687 333.093C446.634 333.48 447.434 334.06 448.087 334.833L446.407 336.413C445.9 335.866 445.334 335.46 444.707 335.193C444.08 334.913 443.4 334.773 442.667 334.773C441.934 334.773 441.26 334.893 440.647 335.133C440.047 335.373 439.52 335.713 439.067 336.153C438.627 336.593 438.28 337.113 438.027 337.713C437.787 338.313 437.667 338.973 437.667 339.693C437.667 340.413 437.787 341.073 438.027 341.673C438.28 342.273 438.627 342.793 439.067 343.233C439.52 343.673 440.047 344.013 440.647 344.253C441.26 344.493 441.934 344.613 442.667 344.613C443.4 344.613 444.08 344.48 444.707 344.213C445.334 343.933 445.9 343.513 446.407 342.953L448.087 344.553C447.434 345.313 446.634 345.893 445.687 346.293C444.74 346.693 443.687 346.893 442.527 346.893ZM455.749 346.693V336.013H460.969C462.262 336.013 463.275 336.253 464.009 336.733C464.755 337.213 465.129 337.893 465.129 338.773C465.129 339.64 464.782 340.32 464.089 340.813C463.395 341.293 462.475 341.533 461.329 341.533L461.629 340.913C462.922 340.913 463.882 341.153 464.509 341.633C465.149 342.1 465.469 342.786 465.469 343.693C465.469 344.64 465.115 345.38 464.409 345.913C463.702 346.433 462.629 346.693 461.189 346.693H455.749ZM458.129 344.873H460.989C461.669 344.873 462.182 344.766 462.529 344.553C462.875 344.326 463.049 343.986 463.049 343.533C463.049 343.053 462.889 342.7 462.569 342.473C462.249 342.246 461.749 342.133 461.069 342.133H458.129V344.873ZM458.129 340.473H460.749C461.389 340.473 461.869 340.36 462.189 340.133C462.522 339.893 462.689 339.56 462.689 339.133C462.689 338.693 462.522 338.366 462.189 338.153C461.869 337.94 461.389 337.833 460.749 337.833H458.129V340.473ZM472.891 346.833C471.798 346.833 470.825 346.6 469.971 346.133C469.118 345.653 468.445 345 467.951 344.173C467.458 343.346 467.211 342.406 467.211 341.353C467.211 340.286 467.458 339.346 467.951 338.533C468.445 337.706 469.118 337.06 469.971 336.593C470.825 336.126 471.798 335.893 472.891 335.893C473.998 335.893 474.978 336.126 475.831 336.593C476.698 337.06 477.371 337.7 477.851 338.513C478.345 339.326 478.591 340.273 478.591 341.353C478.591 342.406 478.345 343.346 477.851 344.173C477.371 345 476.698 345.653 475.831 346.133C474.978 346.6 473.998 346.833 472.891 346.833ZM472.891 344.693C473.505 344.693 474.051 344.56 474.531 344.293C475.011 344.026 475.385 343.64 475.651 343.133C475.931 342.626 476.071 342.033 476.071 341.353C476.071 340.66 475.931 340.066 475.651 339.573C475.385 339.066 475.011 338.68 474.531 338.413C474.051 338.146 473.511 338.013 472.911 338.013C472.298 338.013 471.751 338.146 471.271 338.413C470.805 338.68 470.431 339.066 470.151 339.573C469.871 340.066 469.731 340.66 469.731 341.353C469.731 342.033 469.871 342.626 470.151 343.133C470.431 343.64 470.805 344.026 471.271 344.293C471.751 344.56 472.291 344.693 472.891 344.693ZM484.285 346.873C483.471 346.873 482.665 346.78 481.865 346.593C481.078 346.393 480.365 346.113 479.725 345.753L480.425 343.893C480.945 344.186 481.531 344.413 482.185 344.573C482.838 344.733 483.491 344.813 484.145 344.813C484.705 344.813 485.185 344.76 485.585 344.653C485.985 344.533 486.291 344.36 486.505 344.133C486.731 343.906 486.845 343.646 486.845 343.353C486.845 342.926 486.658 342.606 486.285 342.393C485.925 342.166 485.405 342.053 484.725 342.053H482.665V340.373H484.525C484.951 340.373 485.311 340.326 485.605 340.233C485.911 340.14 486.145 340 486.305 339.813C486.465 339.626 486.545 339.406 486.545 339.153C486.545 338.9 486.445 338.68 486.245 338.493C486.058 338.293 485.785 338.146 485.425 338.053C485.065 337.946 484.631 337.893 484.125 337.893C483.591 337.893 483.038 337.96 482.465 338.093C481.905 338.226 481.331 338.42 480.745 338.673L480.105 336.833C480.785 336.526 481.445 336.293 482.085 336.133C482.738 335.96 483.385 335.866 484.025 335.853C484.998 335.813 485.865 335.913 486.625 336.153C487.385 336.393 487.985 336.74 488.425 337.193C488.865 337.646 489.085 338.18 489.085 338.793C489.085 339.3 488.925 339.76 488.605 340.173C488.298 340.573 487.871 340.886 487.325 341.113C486.791 341.34 486.178 341.453 485.485 341.453L485.565 340.913C486.751 340.913 487.685 341.153 488.365 341.633C489.045 342.1 489.385 342.74 489.385 343.553C489.385 344.206 489.165 344.786 488.725 345.293C488.285 345.786 487.678 346.173 486.905 346.453C486.145 346.733 485.271 346.873 484.285 346.873ZM491.959 346.693V336.013H497.179C498.473 336.013 499.486 336.253 500.219 336.733C500.966 337.213 501.339 337.893 501.339 338.773C501.339 339.64 500.993 340.32 500.299 340.813C499.606 341.293 498.686 341.533 497.539 341.533L497.839 340.913C499.133 340.913 500.093 341.153 500.719 341.633C501.359 342.1 501.679 342.786 501.679 343.693C501.679 344.64 501.326 345.38 500.619 345.913C499.913 346.433 498.839 346.693 497.399 346.693H491.959ZM494.339 344.873H497.199C497.879 344.873 498.393 344.766 498.739 344.553C499.086 344.326 499.259 343.986 499.259 343.533C499.259 343.053 499.099 342.7 498.779 342.473C498.459 342.246 497.959 342.133 497.279 342.133H494.339V344.873ZM494.339 340.473H496.959C497.599 340.473 498.079 340.36 498.399 340.133C498.733 339.893 498.899 339.56 498.899 339.133C498.899 338.693 498.733 338.366 498.399 338.153C498.079 337.94 497.599 337.833 496.959 337.833H494.339V340.473ZM510.262 346.833C509.396 346.833 508.602 346.633 507.882 346.233C507.176 345.833 506.609 345.233 506.182 344.433C505.769 343.62 505.562 342.593 505.562 341.353C505.562 340.1 505.762 339.073 506.162 338.273C506.576 337.473 507.136 336.88 507.842 336.493C508.549 336.093 509.356 335.893 510.262 335.893C511.316 335.893 512.242 336.12 513.042 336.573C513.856 337.026 514.496 337.66 514.962 338.473C515.442 339.286 515.682 340.246 515.682 341.353C515.682 342.46 515.442 343.426 514.962 344.253C514.496 345.066 513.856 345.7 513.042 346.153C512.242 346.606 511.316 346.833 510.262 346.833ZM504.342 350.573V336.013H506.722V338.533L506.642 341.373L506.842 344.213V350.573H504.342ZM509.982 344.693C510.582 344.693 511.116 344.56 511.582 344.293C512.062 344.026 512.442 343.64 512.722 343.133C513.002 342.626 513.142 342.033 513.142 341.353C513.142 340.66 513.002 340.066 512.722 339.573C512.442 339.066 512.062 338.68 511.582 338.413C511.116 338.146 510.582 338.013 509.982 338.013C509.382 338.013 508.842 338.146 508.362 338.413C507.882 338.68 507.502 339.066 507.222 339.573C506.942 340.066 506.802 340.66 506.802 341.353C506.802 342.033 506.942 342.626 507.222 343.133C507.502 343.64 507.882 344.026 508.362 344.293C508.842 344.56 509.382 344.693 509.982 344.693ZM524.514 346.693V344.533L524.374 344.073V340.293C524.374 339.56 524.154 338.993 523.714 338.593C523.274 338.18 522.607 337.973 521.714 337.973C521.114 337.973 520.52 338.066 519.934 338.253C519.36 338.44 518.874 338.7 518.474 339.033L517.494 337.213C518.067 336.773 518.747 336.446 519.534 336.233C520.334 336.006 521.16 335.893 522.014 335.893C523.56 335.893 524.754 336.266 525.594 337.013C526.447 337.746 526.874 338.886 526.874 340.433V346.693H524.514ZM521.154 346.833C520.354 346.833 519.654 346.7 519.054 346.433C518.454 346.153 517.987 345.773 517.654 345.293C517.334 344.8 517.174 344.246 517.174 343.633C517.174 343.033 517.314 342.493 517.594 342.013C517.887 341.533 518.36 341.153 519.014 340.873C519.667 340.593 520.534 340.453 521.614 340.453H524.714V342.113H521.794C520.94 342.113 520.367 342.253 520.074 342.533C519.78 342.8 519.634 343.133 519.634 343.533C519.634 343.986 519.814 344.346 520.174 344.613C520.534 344.88 521.034 345.013 521.674 345.013C522.287 345.013 522.834 344.873 523.314 344.593C523.807 344.313 524.16 343.9 524.374 343.353L524.794 344.853C524.554 345.48 524.12 345.966 523.494 346.313C522.88 346.66 522.1 346.833 521.154 346.833ZM537.147 344.573L536.607 345.173V336.013H539.107V345.173L538.507 344.573H543.787L543.207 345.173V336.013H545.707V346.693H529.967V336.013H532.467V345.173L531.887 344.573H537.147ZM544.907 348.893V346.073L545.487 346.693H543.127V344.573H547.247V348.893H544.907ZM554.049 346.833C552.862 346.833 551.822 346.6 550.929 346.133C550.049 345.653 549.362 345 548.869 344.173C548.389 343.346 548.149 342.406 548.149 341.353C548.149 340.286 548.382 339.346 548.849 338.533C549.329 337.706 549.982 337.06 550.809 336.593C551.649 336.126 552.602 335.893 553.669 335.893C554.709 335.893 555.636 336.12 556.449 336.573C557.262 337.026 557.902 337.666 558.369 338.493C558.836 339.32 559.069 340.293 559.069 341.413C559.069 341.52 559.062 341.64 559.049 341.773C559.049 341.906 559.042 342.033 559.029 342.153H550.129V340.493H557.709L556.729 341.013C556.742 340.4 556.616 339.86 556.349 339.393C556.082 338.926 555.716 338.56 555.249 338.293C554.796 338.026 554.269 337.893 553.669 337.893C553.056 337.893 552.516 338.026 552.049 338.293C551.596 338.56 551.236 338.933 550.969 339.413C550.716 339.88 550.589 340.433 550.589 341.073V341.473C550.589 342.113 550.736 342.68 551.029 343.173C551.322 343.666 551.736 344.046 552.269 344.313C552.802 344.58 553.416 344.713 554.109 344.713C554.709 344.713 555.249 344.62 555.729 344.433C556.209 344.246 556.636 343.953 557.009 343.553L558.349 345.093C557.869 345.653 557.262 346.086 556.529 346.393C555.809 346.686 554.982 346.833 554.049 346.833ZM561.803 346.693V336.013H564.303V340.353H569.683V336.013H572.183V346.693H569.683V342.473H564.303V346.693H561.803ZM575.534 346.693V336.013H578.034V343.053L583.934 336.013H586.214V346.693H583.714V339.653L577.834 346.693H575.534ZM594.557 346.833C593.37 346.833 592.33 346.6 591.437 346.133C590.557 345.653 589.87 345 589.377 344.173C588.897 343.346 588.657 342.406 588.657 341.353C588.657 340.286 588.89 339.346 589.357 338.533C589.837 337.706 590.49 337.06 591.317 336.593C592.157 336.126 593.11 335.893 594.177 335.893C595.217 335.893 596.143 336.12 596.957 336.573C597.77 337.026 598.41 337.666 598.877 338.493C599.343 339.32 599.577 340.293 599.577 341.413C599.577 341.52 599.57 341.64 599.557 341.773C599.557 341.906 599.55 342.033 599.537 342.153H590.637V340.493H598.217L597.237 341.013C597.25 340.4 597.123 339.86 596.857 339.393C596.59 338.926 596.223 338.56 595.757 338.293C595.303 338.026 594.777 337.893 594.177 337.893C593.563 337.893 593.023 338.026 592.557 338.293C592.103 338.56 591.743 338.933 591.477 339.413C591.223 339.88 591.097 340.433 591.097 341.073V341.473C591.097 342.113 591.243 342.68 591.537 343.173C591.83 343.666 592.243 344.046 592.777 344.313C593.31 344.58 593.923 344.713 594.617 344.713C595.217 344.713 595.757 344.62 596.237 344.433C596.717 344.246 597.143 343.953 597.517 343.553L598.857 345.093C598.377 345.653 597.77 346.086 597.037 346.393C596.317 346.686 595.49 346.833 594.557 346.833ZM602.311 346.693V336.013H604.931L609.231 343.593H608.191L612.711 336.013H615.051L615.071 346.693H612.811V338.693L613.211 338.953L609.211 345.573H608.131L604.111 338.773L604.591 338.653V346.693H602.311Z" fill="black" fill-opacity="0.5"/>
<g filter="url(#filter2_d_15_131)">
<path fill-rule="evenodd" clip-rule="evenodd" d="M692.422 275.601C692.422 264.555 683.468 255.601 672.422 255.601H593.973C582.927 255.601 573.973 264.555 573.973 275.601V442.219C573.973 453.265 582.927 462.219 593.973 462.219H672.422C683.468 462.219 692.422 453.265 692.422 442.219V275.601ZM601.988 264.952C590.943 264.952 581.988 273.906 581.988 284.952V425.298C581.988 436.343 590.943 445.298 601.988 445.298H663.516C674.562 445.298 683.516 436.343 683.516 425.298V284.952C683.516 273.906 674.562 264.952 663.516 264.952H601.988Z" fill="#B96426"/>
<path d="M601.988 445.298C590.943 445.298 581.988 436.343 581.988 425.298V284.952C581.988 273.906 590.943 264.952 601.988 264.952H663.516C674.562 264.952 683.516 273.906 683.516 284.952V425.298C683.516 436.343 674.562 445.298 663.516 445.298H601.988Z" fill="white"/>
<path d="M672.422 256.101C683.192 256.101 691.922 264.831 691.922 275.601V442.219C691.922 452.988 683.192 461.719 672.422 461.719H593.973C583.204 461.719 574.473 452.988 574.473 442.219V275.601C574.473 264.831 583.204 256.101 593.973 256.101H672.422ZM601.988 264.452C590.667 264.452 581.488 273.63 581.488 284.952V425.298C581.488 436.619 590.667 445.798 601.988 445.798H663.516C674.838 445.798 684.016 436.619 684.016 425.298V284.952C684.016 273.63 674.838 264.452 663.516 264.452H601.988ZM582.488 284.952C582.488 274.183 591.219 265.452 601.988 265.452H663.516C674.286 265.452 683.016 274.183 683.016 284.952V425.298C683.016 436.067 674.286 444.798 663.516 444.798H601.988C591.219 444.798 582.488 436.067 582.488 425.298V284.952Z" stroke="#3C1900"/>
</g>
<path d="M602.211 303.662V292.462H612.115V303.662H610.067V293.71L610.547 294.222H603.779L604.259 293.71V303.662H602.211ZM619.785 303.774C619.092 303.774 618.457 303.614 617.881 303.294C617.316 302.974 616.863 302.494 616.521 301.854C616.191 301.203 616.025 300.382 616.025 299.39C616.025 298.387 616.185 297.566 616.505 296.926C616.836 296.286 617.284 295.811 617.849 295.502C618.415 295.182 619.06 295.022 619.785 295.022C620.628 295.022 621.369 295.203 622.009 295.566C622.66 295.929 623.172 296.435 623.545 297.086C623.929 297.737 624.121 298.505 624.121 299.39C624.121 300.275 623.929 301.049 623.545 301.71C623.172 302.361 622.66 302.867 622.009 303.23C621.369 303.593 620.628 303.774 619.785 303.774ZM615.049 306.766V295.118H616.953V297.134L616.889 299.406L617.049 301.678V306.766H615.049ZM619.561 302.062C620.041 302.062 620.468 301.955 620.841 301.742C621.225 301.529 621.529 301.219 621.753 300.814C621.977 300.409 622.089 299.934 622.089 299.39C622.089 298.835 621.977 298.361 621.753 297.966C621.529 297.561 621.225 297.251 620.841 297.038C620.468 296.825 620.041 296.718 619.561 296.718C619.081 296.718 618.649 296.825 618.265 297.038C617.881 297.251 617.577 297.561 617.353 297.966C617.129 298.361 617.017 298.835 617.017 299.39C617.017 299.934 617.129 300.409 617.353 300.814C617.577 301.219 617.881 301.529 618.265 301.742C618.649 301.955 619.081 302.062 619.561 302.062ZM626.112 303.662V295.118H628.112V300.75L632.832 295.118H634.656V303.662H632.656V298.03L627.952 303.662H626.112ZM637.346 303.662V295.118H641.522C642.557 295.118 643.368 295.31 643.954 295.694C644.552 296.078 644.85 296.622 644.85 297.326C644.85 298.019 644.573 298.563 644.018 298.958C643.464 299.342 642.728 299.534 641.81 299.534L642.05 299.038C643.085 299.038 643.853 299.23 644.354 299.614C644.866 299.987 645.122 300.537 645.122 301.262C645.122 302.019 644.84 302.611 644.274 303.038C643.709 303.454 642.85 303.662 641.698 303.662H637.346ZM639.25 302.206H641.538C642.082 302.206 642.493 302.121 642.77 301.95C643.048 301.769 643.186 301.497 643.186 301.134C643.186 300.75 643.058 300.467 642.802 300.286C642.546 300.105 642.146 300.014 641.602 300.014H639.25V302.206ZM639.25 298.686H641.346C641.858 298.686 642.242 298.595 642.498 298.414C642.765 298.222 642.898 297.955 642.898 297.614C642.898 297.262 642.765 297.001 642.498 296.83C642.242 296.659 641.858 296.574 641.346 296.574H639.25V298.686ZM651.237 303.774C650.287 303.774 649.455 303.587 648.741 303.214C648.037 302.83 647.487 302.307 647.093 301.646C646.709 300.985 646.517 300.233 646.517 299.39C646.517 298.537 646.703 297.785 647.077 297.134C647.461 296.473 647.983 295.955 648.645 295.582C649.317 295.209 650.079 295.022 650.933 295.022C651.765 295.022 652.506 295.203 653.157 295.566C653.807 295.929 654.319 296.441 654.693 297.102C655.066 297.763 655.253 298.542 655.253 299.438C655.253 299.523 655.247 299.619 655.237 299.726C655.237 299.833 655.231 299.934 655.221 300.03H648.101V298.702H654.165L653.381 299.118C653.391 298.627 653.29 298.195 653.077 297.822C652.863 297.449 652.57 297.155 652.197 296.942C651.834 296.729 651.413 296.622 650.933 296.622C650.442 296.622 650.01 296.729 649.637 296.942C649.274 297.155 648.986 297.454 648.773 297.838C648.57 298.211 648.469 298.654 648.469 299.166V299.486C648.469 299.998 648.586 300.451 648.821 300.846C649.055 301.241 649.386 301.545 649.813 301.758C650.239 301.971 650.73 302.078 651.285 302.078C651.765 302.078 652.197 302.003 652.581 301.854C652.965 301.705 653.306 301.47 653.605 301.15L654.677 302.382C654.293 302.83 653.807 303.177 653.221 303.422C652.645 303.657 651.983 303.774 651.237 303.774ZM658.888 303.662V296.334L659.352 296.814H655.88V295.118H663.88V296.814H660.424L660.888 296.334V303.662H658.888ZM665.427 299.95L665.043 292.462H667.411L667.011 299.95H665.427ZM666.227 303.774C665.853 303.774 665.544 303.651 665.299 303.406C665.053 303.161 664.931 302.867 664.931 302.526C664.931 302.185 665.053 301.897 665.299 301.662C665.544 301.417 665.853 301.294 666.227 301.294C666.6 301.294 666.904 301.417 667.139 301.662C667.373 301.897 667.491 302.185 667.491 302.526C667.491 302.867 667.373 303.161 667.139 303.406C666.904 303.651 666.6 303.774 666.227 303.774Z" fill="black" fill-opacity="0.5"/>
<path d="M184.177 80.9616C184.177 81.3571 184.123 81.7404 184.022 82.1047C183.62 83.5547 182.471 84.7058 181.001 85.1425C180.586 85.2659 180.146 85.3322 179.689 85.3322C177.211 85.3322 175.202 83.3754 175.202 80.9616C175.202 78.5478 177.211 76.5911 179.689 76.5911C182.168 76.5911 184.177 78.5478 184.177 80.9616Z" fill="#B96426"/>
<path d="M188.389 96.2923H197.779L184.022 82.1047C183.62 83.5547 182.471 84.7058 181.001 85.1425L188.389 96.2923Z" fill="#B96426"/>
<path d="M239.757 80.9616C239.757 81.3571 239.811 81.7404 239.912 82.1047C240.315 83.5547 241.464 84.7058 242.933 85.1425C243.348 85.2659 243.789 85.3322 244.245 85.3322C246.724 85.3322 248.733 83.3754 248.733 80.9616C248.733 78.5478 246.724 76.5911 244.245 76.5911C241.767 76.5911 239.757 78.5478 239.757 80.9616Z" fill="#B96426"/>
<path d="M235.546 96.2923H226.156L239.912 82.1047C240.315 83.5547 241.464 84.7058 242.933 85.1425L235.546 96.2923Z" fill="#B96426"/>
<path d="M86.8875 197.067C86.8875 197.462 86.8336 197.845 86.7325 198.21C86.3301 199.66 85.1808 200.811 83.7115 201.248C83.2966 201.371 82.8561 201.437 82.3997 201.437C79.9211 201.437 77.9119 199.48 77.9119 197.067C77.9119 194.653 79.9211 192.696 82.3997 192.696C84.8782 192.696 86.8875 194.653 86.8875 197.067Z" fill="#B96426"/>
<path d="M90.1386 210.948C90.7385 211.853 91.7522 212.397 92.8382 212.397C95.6993 212.397 97.1548 208.959 95.1632 206.904L93.6108 205.303L86.7325 198.21C86.3301 199.66 85.1808 200.811 83.7115 201.248L90.1386 210.948Z" fill="#B96426"/>
<path fill-rule="evenodd" clip-rule="evenodd" d="M170.507 111.179C170.507 100.024 179.55 90.9805 190.705 90.9805H233.294C244.376 90.9805 253.359 99.9638 253.359 111.045C253.359 122.127 244.376 131.11 233.294 131.11H201.07C192.046 131.11 184.73 138.426 184.73 147.45V297.038C184.73 300.966 181.546 304.15 177.618 304.15C173.691 304.15 170.507 300.966 170.507 297.038V263.253C170.507 257.606 165.929 253.029 160.283 253.029H103.269C97.6225 253.029 93.0449 257.606 93.0449 263.253V297.529C93.0449 301.186 90.0807 304.15 86.4242 304.15C82.7677 304.15 79.8035 301.186 79.8035 297.529V235.374C79.8035 216.382 95.1995 200.986 114.191 200.986H140.272C156.97 200.986 170.507 187.45 170.507 170.752V139.393V111.179ZM231.679 96.3596H191.634C183.245 96.3596 176.445 102.983 176.445 111.152C176.445 119.322 183.245 125.945 191.634 125.945H231.679C240.068 125.945 246.869 119.322 246.869 111.152C246.869 102.983 240.068 96.3596 231.679 96.3596Z" fill="#FAB225"/>
<mask id="mask0_15_131" style="mask-type:alpha" maskUnits="userSpaceOnUse" x="79" y="90" width="175" height="215">
<path fill-rule="evenodd" clip-rule="evenodd" d="M170.507 111.179C170.507 100.024 179.55 90.9805 190.705 90.9805H233.294C244.376 90.9805 253.359 99.9638 253.359 111.045C253.359 122.127 244.376 131.11 233.294 131.11H201.07C192.046 131.11 184.73 138.426 184.73 147.45V297.038C184.73 300.966 181.546 304.15 177.618 304.15C173.691 304.15 170.507 300.966 170.507 297.038V263.253C170.507 257.606 165.929 253.029 160.283 253.029H103.269C97.6224 253.029 93.0449 257.606 93.0449 263.253V297.529C93.0449 301.186 90.0807 304.15 86.4242 304.15C82.7677 304.15 79.8035 301.186 79.8035 297.529V235.374C79.8035 216.382 95.1995 200.986 114.191 200.986H140.272C156.97 200.986 170.507 187.45 170.507 170.752V139.393V111.179ZM231.679 96.3596H191.634C183.245 96.3596 176.445 102.983 176.445 111.152C176.445 119.322 183.245 125.945 191.634 125.945H231.679C240.068 125.945 246.869 119.322 246.869 111.152C246.869 102.983 240.068 96.3596 231.679 96.3596Z" fill="#FAB225"/>
</mask>
<g mask="url(#mask0_15_131)">
<ellipse cx="163.23" cy="124.102" rx="15.3276" ry="14.9272" fill="#B96426"/>
<ellipse cx="91.3479" cy="258.284" rx="15.3276" ry="14.9272" fill="#B96426"/>
<ellipse cx="170.796" cy="297.892" rx="15.3276" ry="14.9272" fill="#B96426"/>
<ellipse cx="85.673" cy="308.024" rx="15.3276" ry="14.9272" fill="#B96426"/>
<ellipse cx="185.929" cy="164.331" rx="15.3276" ry="14.9272" fill="#B96426"/>
<ellipse cx="159.447" cy="200.255" rx="15.3276" ry="14.9272" fill="#B96426"/>
<ellipse cx="176.471" cy="243.547" rx="15.3276" ry="14.9272" fill="#B96426"/>
<ellipse cx="132.964" cy="234.335" rx="15.3276" ry="14.9272" fill="#B96426"/>
<ellipse cx="93.2395" cy="212.229" rx="15.3276" ry="14.9272" fill="#B96426"/>
<ellipse cx="215.427" cy="134.727" rx="15.3276" ry="14.9272" fill="#B96426"/>
<ellipse cx="250.915" cy="102.989" rx="15.3276" ry="14.9272" fill="#B96426"/>
<ellipse cx="177.729" cy="84.5656" rx="15.3276" ry="14.9272" fill="#B96426"/>
<ellipse cx="217.498" cy="79.59" rx="15.3276" ry="14.9272" fill="#B96426"/>
</g>
<path d="M194.396 111.085C194.396 111.48 194.45 111.864 194.551 112.228C194.953 113.678 196.102 114.829 197.572 115.266C197.987 115.389 198.427 115.456 198.884 115.456C201.362 115.456 203.371 113.499 203.371 111.085C203.371 108.671 201.362 106.714 198.884 106.714C196.405 106.714 194.396 108.671 194.396 111.085Z" fill="#3C1900"/>
<path d="M219.942 111.085C219.942 111.48 219.996 111.864 220.097 112.228C220.499 113.678 221.649 114.829 223.118 115.266C223.533 115.389 223.973 115.456 224.43 115.456C226.908 115.456 228.918 113.499 228.918 111.085C228.918 108.671 226.908 106.714 224.43 106.714C221.951 106.714 219.942 108.671 219.942 111.085Z" fill="#3C1900"/>
<path d="M423.856 292.841C423.856 293.068 423.826 293.288 423.768 293.497C423.537 294.328 422.878 294.989 422.035 295.239C421.797 295.31 421.544 295.348 421.282 295.348C419.861 295.348 418.708 294.226 418.708 292.841C418.708 291.456 419.861 290.334 421.282 290.334C422.704 290.334 423.856 291.456 423.856 292.841Z" fill="#B96426"/>
<path d="M426.272 301.635H431.658L423.768 293.497C423.537 294.328 422.878 294.989 422.035 295.239L426.272 301.635Z" fill="#B96426"/>
<path d="M455.737 292.841C455.737 293.068 455.768 293.288 455.826 293.497C456.057 294.328 456.716 294.989 457.559 295.239C457.797 295.31 458.05 295.348 458.312 295.348C459.733 295.348 460.886 294.226 460.886 292.841C460.886 291.456 459.733 290.334 458.312 290.334C456.89 290.334 455.737 291.456 455.737 292.841Z" fill="#B96426"/>
<path d="M453.322 301.635H447.936L455.826 293.497C456.057 294.328 456.716 294.989 457.559 295.239L453.322 301.635Z" fill="#B96426"/>
<path d="M368.051 359.439C368.051 359.666 368.02 359.886 367.962 360.095C367.731 360.927 367.072 361.587 366.229 361.838C365.991 361.908 365.738 361.946 365.476 361.946C364.055 361.946 362.902 360.824 362.902 359.439C362.902 358.055 364.055 356.932 365.476 356.932C366.898 356.932 368.051 358.055 368.051 359.439Z" fill="#B96426"/>
<path d="M369.915 367.402C370.26 367.921 370.841 368.233 371.464 368.233C373.105 368.233 373.94 366.261 372.798 365.082L371.907 364.164L367.962 360.095C367.731 360.927 367.072 361.587 366.229 361.838L369.915 367.402Z" fill="#B96426"/>
<path fill-rule="evenodd" clip-rule="evenodd" d="M416.015 310.174C416.015 303.775 421.202 298.588 427.601 298.588H452.03C458.387 298.588 463.539 303.741 463.539 310.097C463.539 316.454 458.387 321.606 452.03 321.606H433.546C428.37 321.606 424.173 325.803 424.173 330.979V416.784C424.173 419.036 422.347 420.863 420.094 420.863C417.841 420.863 416.015 419.036 416.015 416.784V397.404C416.015 394.165 413.389 391.539 410.15 391.539H377.447C374.208 391.539 371.583 394.165 371.583 397.404V417.065C371.583 419.162 369.882 420.863 367.785 420.863C365.688 420.863 363.987 419.162 363.987 417.065V381.413C363.987 370.519 372.818 361.688 383.712 361.688H398.672C408.251 361.688 416.015 353.923 416.015 344.345V326.358V310.174ZM451.104 301.673H428.134C423.322 301.673 419.421 305.472 419.421 310.159C419.421 314.845 423.322 318.644 428.134 318.644H451.104C455.916 318.644 459.817 314.845 459.817 310.159C459.817 305.472 455.916 301.673 451.104 301.673Z" fill="#FAB225"/>
<mask id="mask1_15_131" style="mask-type:alpha" maskUnits="userSpaceOnUse" x="363" y="298" width="101" height="123">
<path fill-rule="evenodd" clip-rule="evenodd" d="M416.015 310.174C416.015 303.775 421.202 298.588 427.601 298.588H452.03C458.386 298.588 463.539 303.741 463.539 310.097C463.539 316.454 458.386 321.606 452.03 321.606H433.546C428.37 321.606 424.173 325.803 424.173 330.979V416.784C424.173 419.036 422.347 420.863 420.094 420.863C417.841 420.863 416.015 419.036 416.015 416.784V397.404C416.015 394.165 413.389 391.539 410.15 391.539H377.447C374.208 391.539 371.583 394.165 371.583 397.404V417.065C371.583 419.162 369.882 420.863 367.785 420.863C365.687 420.863 363.987 419.162 363.987 417.065V381.413C363.987 370.519 372.818 361.688 383.712 361.688H398.672C408.251 361.688 416.015 353.923 416.015 344.345V326.358V310.174ZM451.104 301.673H428.134C423.322 301.673 419.421 305.472 419.421 310.159C419.421 314.845 423.322 318.644 428.134 318.644H451.104C455.916 318.644 459.817 314.845 459.817 310.159C459.817 305.472 455.916 301.673 451.104 301.673Z" fill="#FAB225"/>
</mask>
<g mask="url(#mask1_15_131)">
<ellipse cx="411.841" cy="317.587" rx="8.792" ry="8.5623" fill="#B96426"/>
<ellipse cx="370.609" cy="394.554" rx="8.792" ry="8.5623" fill="#B96426"/>
<ellipse cx="416.181" cy="417.273" rx="8.792" ry="8.5623" fill="#B96426"/>
<ellipse cx="367.354" cy="423.085" rx="8.792" ry="8.5623" fill="#B96426"/>
<ellipse cx="424.861" cy="340.662" rx="8.792" ry="8.5623" fill="#B96426"/>
<ellipse cx="409.671" cy="361.268" rx="8.792" ry="8.5623" fill="#B96426"/>
<ellipse cx="419.436" cy="386.1" rx="8.792" ry="8.5623" fill="#B96426"/>
<ellipse cx="394.48" cy="380.817" rx="8.792" ry="8.5623" fill="#B96426"/>
<ellipse cx="371.694" cy="368.137" rx="8.792" ry="8.5623" fill="#B96426"/>
<ellipse cx="441.781" cy="323.681" rx="8.792" ry="8.5623" fill="#B96426"/>
<ellipse cx="462.137" cy="305.476" rx="8.792" ry="8.5623" fill="#B96426"/>
<ellipse cx="420.158" cy="294.908" rx="8.792" ry="8.5623" fill="#B96426"/>
<ellipse cx="442.969" cy="292.054" rx="8.792" ry="8.5623" fill="#B96426"/>
</g>
<path d="M429.718 310.12C429.718 310.347 429.749 310.566 429.807 310.775C430.038 311.607 430.697 312.267 431.54 312.518C431.778 312.589 432.03 312.627 432.292 312.627C433.714 312.627 434.866 311.504 434.866 310.12C434.866 308.735 433.714 307.613 432.292 307.613C430.87 307.613 429.718 308.735 429.718 310.12Z" fill="#3C1900"/>
<path d="M444.371 310.12C444.371 310.347 444.402 310.566 444.46 310.775C444.691 311.607 445.35 312.267 446.193 312.518C446.431 312.589 446.684 312.627 446.945 312.627C448.367 312.627 449.52 311.504 449.52 310.12C449.52 308.735 448.367 307.613 446.945 307.613C445.524 307.613 444.371 308.735 444.371 310.12Z" fill="#3C1900"/>
<path d="M643.493 335.77C643.493 335.933 643.471 336.09 643.43 336.24C643.264 336.836 642.792 337.309 642.187 337.489C642.017 337.54 641.836 337.567 641.648 337.567C640.629 337.567 639.803 336.762 639.803 335.77C639.803 334.777 640.629 333.973 641.648 333.973C642.667 333.973 643.493 334.777 643.493 335.77Z" fill="#B96426"/>
<path d="M645.225 342.073H649.086L643.43 336.24C643.264 336.836 642.792 337.309 642.187 337.489L645.225 342.073Z" fill="#B96426"/>
<path d="M666.346 335.77C666.346 335.933 666.368 336.09 666.41 336.24C666.575 336.836 667.048 337.309 667.652 337.489C667.822 337.54 668.004 337.567 668.191 337.567C669.21 337.567 670.036 336.762 670.036 335.77C670.036 334.777 669.21 333.973 668.191 333.973C667.172 333.973 666.346 334.777 666.346 335.77Z" fill="#B96426"/>
<path d="M664.614 342.073H660.753L666.41 336.24C666.575 336.836 667.048 337.309 667.652 337.489L664.614 342.073Z" fill="#B96426"/>
<path d="M603.491 383.509C603.491 383.671 603.469 383.829 603.427 383.979C603.262 384.575 602.789 385.048 602.185 385.228C602.014 385.278 601.833 385.306 601.646 385.306C600.627 385.306 599.8 384.501 599.8 383.509C599.8 382.516 600.627 381.712 601.646 381.712C602.665 381.712 603.491 382.516 603.491 383.509Z" fill="#B96426"/>
<path d="M604.828 389.216C605.074 389.588 605.491 389.812 605.938 389.812C607.114 389.812 607.712 388.398 606.894 387.554L606.255 386.895L603.427 383.979C603.262 384.575 602.789 385.048 602.185 385.228L604.828 389.216Z" fill="#B96426"/>
<path fill-rule="evenodd" clip-rule="evenodd" d="M637.872 348.194C637.872 343.608 641.591 339.889 646.177 339.889H663.689C668.245 339.889 671.939 343.583 671.939 348.139C671.939 352.696 668.245 356.389 663.689 356.389H650.439C646.729 356.389 643.72 359.397 643.72 363.108V424.614C643.72 426.229 642.411 427.538 640.796 427.538C639.182 427.538 637.872 426.229 637.872 424.614V410.722C637.872 408.4 635.99 406.518 633.669 406.518H610.226C607.905 406.518 606.023 408.4 606.023 410.722V424.816C606.023 426.319 604.804 427.538 603.3 427.538C601.797 427.538 600.578 426.319 600.578 424.816V399.259C600.578 391.451 606.909 385.12 614.717 385.12H625.441C632.307 385.12 637.872 379.554 637.872 372.689V359.795V348.194ZM663.025 342.101H646.559C643.11 342.101 640.314 344.824 640.314 348.183C640.314 351.543 643.11 354.266 646.559 354.266H663.025C666.474 354.266 669.27 351.543 669.27 348.183C669.27 344.824 666.474 342.101 663.025 342.101Z" fill="#FAB225"/>
<mask id="mask2_15_131" style="mask-type:alpha" maskUnits="userSpaceOnUse" x="600" y="339" width="72" height="89">
<path fill-rule="evenodd" clip-rule="evenodd" d="M637.872 348.194C637.872 343.608 641.591 339.889 646.177 339.889H663.689C668.245 339.889 671.939 343.583 671.939 348.139C671.939 352.696 668.245 356.389 663.689 356.389H650.439C646.729 356.389 643.72 359.397 643.72 363.108V424.614C643.72 426.229 642.411 427.538 640.796 427.538C639.182 427.538 637.872 426.229 637.872 424.614V410.722C637.872 408.4 635.99 406.518 633.669 406.518H610.226C607.905 406.518 606.023 408.4 606.023 410.722V424.816C606.023 426.319 604.804 427.538 603.3 427.538C601.797 427.538 600.578 426.319 600.578 424.816V399.259C600.578 391.451 606.909 385.12 614.717 385.12H625.441C632.307 385.12 637.872 379.554 637.872 372.689V359.795V348.194ZM663.025 342.101H646.559C643.11 342.101 640.314 344.824 640.314 348.183C640.314 351.543 643.11 354.266 646.559 354.266H663.025C666.474 354.266 669.27 351.543 669.27 348.183C669.27 344.824 666.474 342.101 663.025 342.101Z" fill="#FAB225"/>
</mask>
<g mask="url(#mask2_15_131)">
<ellipse cx="634.88" cy="353.508" rx="6.30223" ry="6.13758" fill="#B96426"/>
<ellipse cx="605.325" cy="408.679" rx="6.30223" ry="6.13758" fill="#B96426"/>
<ellipse cx="637.991" cy="424.965" rx="6.30223" ry="6.13758" fill="#B96426"/>
<ellipse cx="602.992" cy="429.13" rx="6.30223" ry="6.13758" fill="#B96426"/>
<ellipse cx="644.214" cy="370.049" rx="6.30223" ry="6.13758" fill="#B96426"/>
<ellipse cx="633.325" cy="384.82" rx="6.30223" ry="6.13758" fill="#B96426"/>
<ellipse cx="640.325" cy="402.62" rx="6.30223" ry="6.13758" fill="#B96426"/>
<ellipse cx="622.436" cy="398.832" rx="6.30223" ry="6.13758" fill="#B96426"/>
<ellipse cx="606.103" cy="389.743" rx="6.30223" ry="6.13758" fill="#B96426"/>
<ellipse cx="656.342" cy="357.877" rx="6.30223" ry="6.13758" fill="#B96426"/>
<ellipse cx="670.934" cy="344.827" rx="6.30223" ry="6.13758" fill="#B96426"/>
<ellipse cx="640.842" cy="337.252" rx="6.30223" ry="6.13758" fill="#B96426"/>
<ellipse cx="657.194" cy="335.206" rx="6.30223" ry="6.13758" fill="#B96426"/>
</g>
<path d="M647.695 348.156C647.695 348.318 647.717 348.476 647.759 348.626C647.924 349.222 648.397 349.695 649.001 349.875C649.171 349.925 649.352 349.953 649.54 349.953C650.559 349.953 651.385 349.148 651.385 348.156C651.385 347.163 650.559 346.359 649.54 346.359C648.521 346.359 647.695 347.163 647.695 348.156Z" fill="#3C1900"/>
<path d="M658.199 348.156C658.199 348.318 658.221 348.476 658.262 348.626C658.428 349.222 658.9 349.695 659.504 349.875C659.675 349.925 659.856 349.953 660.044 349.953C661.063 349.953 661.889 349.148 661.889 348.156C661.889 347.163 661.063 346.359 660.044 346.359C659.025 346.359 658.199 347.163 658.199 348.156Z" fill="#3C1900"/>
</g>
<defs>
<filter id="filter0_d_15_131" x="0" y="0" width="708" height="509.942" filterUnits="userSpaceOnUse" color-interpolation-filters="sRGB">
<feFlood flood-opacity="0" result="BackgroundImageFix"/>
<feColorMatrix in="SourceAlpha" type="matrix" values="0 0 0 0 0 0 0 0 0 0 0 0 0 0 0 0 0 0 127 0" result="hardAlpha"/>
<feOffset dy="4"/>
<feGaussianBlur stdDeviation="2"/>
<feComposite in2="hardAlpha" operator="out"/>
<feColorMatrix type="matrix" values="0 0 0 0 0 0 0 0 0 0 0 0 0 0 0 0 0 0 0.25 0"/>
<feBlend mode="normal" in2="BackgroundImageFix" result="effect1_dropShadow_15_131"/>
<feBlend mode="normal" in="SourceGraphic" in2="effect1_dropShadow_15_131" result="shape"/>
</filter>
<filter id="filter1_d_15_131" x="291.014" y="207.961" width="362.223" height="258.257" filterUnits="userSpaceOnUse" color-interpolation-filters="sRGB">
<feFlood flood-opacity="0" result="BackgroundImageFix"/>
<feColorMatrix in="SourceAlpha" type="matrix" values="0 0 0 0 0 0 0 0 0 0 0 0 0 0 0 0 0 0 127 0" result="hardAlpha"/>
<feOffset dx="-10"/>
<feGaussianBlur stdDeviation="2"/>
<feComposite in2="hardAlpha" operator="out"/>
<feColorMatrix type="matrix" values="0 0 0 0 0 0 0 0 0 0 0 0 0 0 0 0 0 0 0.25 0"/>
<feBlend mode="normal" in2="BackgroundImageFix" result="effect1_dropShadow_15_131"/>
<feBlend mode="normal" in="SourceGraphic" in2="effect1_dropShadow_15_131" result="shape"/>
</filter>
<filter id="filter2_d_15_131" x="561.973" y="251.601" width="130.449" height="214.618" filterUnits="userSpaceOnUse" color-interpolation-filters="sRGB">
<feFlood flood-opacity="0" result="BackgroundImageFix"/>
<feColorMatrix in="SourceAlpha" type="matrix" values="0 0 0 0 0 0 0 0 0 0 0 0 0 0 0 0 0 0 127 0" result="hardAlpha"/>
<feOffset dx="-8"/>
<feGaussianBlur stdDeviation="2"/>
<feComposite in2="hardAlpha" operator="out"/>
<feColorMatrix type="matrix" values="0 0 0 0 0 0 0 0 0 0 0 0 0 0 0 0 0 0 0.25 0"/>
<feBlend mode="normal" in2="BackgroundImageFix" result="effect1_dropShadow_15_131"/>
<feBlend mode="normal" in="SourceGraphic" in2="effect1_dropShadow_15_131" result="shape"/>
</filter>
</defs>
</svg>
