<svg width="988" height="756" viewBox="0 0 988 756" fill="none" xmlns="http://www.w3.org/2000/svg">
<path d="M664.123 446.018C382.426 415.535 134.372 483.997 19.8848 658.398C-94.6018 832.799 317.148 685.654 443.184 734.355C569.22 783.056 988 734.355 988 734.355V567.449C988 567.449 945.821 476.501 664.123 446.018Z" fill="#F5F5F5"/>
<path d="M125.934 690L111.886 670.81L132.178 679.476V664L144.665 685.048L161.835 674.524L156.372 690" stroke="#FAB225" stroke-width="3"/>
<path d="M662.389 605L648.34 585.81L668.632 594.476V579L681.119 600.048L698.29 589.524L692.826 605" stroke="#FAB225" stroke-width="3"/>
<path d="M873.174 740L859.126 720.81L879.418 729.476V714L891.905 735.048L909.075 724.524L903.612 740" stroke="#FAB225" stroke-width="3"/>
<path d="M967.953 605L982.001 585.81L961.709 594.476V579L949.222 600.048L932.052 589.524L937.515 605" stroke="#FAB225" stroke-width="3"/>
<path d="M647.279 740L661.327 720.81L641.035 729.476V714L628.548 735.048L611.378 724.524L616.841 740" stroke="#FAB225" stroke-width="3"/>
<path d="M368.563 462L382.611 442.81L362.319 451.476V436L349.832 457.048L332.662 446.524L338.125 462" stroke="#FAB225" stroke-width="3"/>
<path d="M734.191 462L748.239 442.81L727.947 451.476V436L715.46 457.048L698.29 446.524L703.753 462" stroke="#FAB225" stroke-width="3"/>
<path d="M450.479 703L464.528 683.81L444.236 692.476V677L431.748 698.048L414.578 687.524L420.042 703" stroke="#FAB225" stroke-width="3"/>
<path d="M840.645 632.5L831.154 605L848.137 621.5L862.622 611L856.628 632.5" stroke="#FAB225" stroke-width="3"/>
<path d="M126.372 558.5L116.881 531L133.864 547.5L148.349 537L142.355 558.5" stroke="#FAB225" stroke-width="3"/>
<path d="M316.178 592.5L306.688 565L323.671 581.5L338.156 571L332.162 592.5" stroke="#FAB225" stroke-width="3"/>
<path d="M521.969 546.5L512.479 519L529.461 535.5L543.947 525L537.953 546.5" stroke="#FAB225" stroke-width="3"/>
<path d="M848.637 504.5L839.146 477L856.129 493.5L870.614 483L864.62 504.5" stroke="#FAB225" stroke-width="3"/>
<path d="M426.272 192.727C426.272 193.336 426.352 193.926 426.504 194.487C427.106 196.719 428.827 198.491 431.028 199.163C431.649 199.353 432.309 199.455 432.992 199.455C436.704 199.455 439.713 196.443 439.713 192.727C439.713 189.012 436.704 186 432.992 186C429.28 186 426.272 189.012 426.272 192.727Z" fill="#B96426"/>
<path d="M419.965 216.325H405.903L426.504 194.487C427.106 196.719 428.827 198.491 431.028 199.163L419.965 216.325Z" fill="#B96426"/>
<path d="M343.04 192.727C343.04 193.336 342.96 193.926 342.808 194.487C342.206 196.719 340.485 198.491 338.284 199.163C337.663 199.353 337.003 199.455 336.32 199.455C332.608 199.455 329.599 196.443 329.599 192.727C329.599 189.012 332.608 186 336.32 186C340.032 186 343.04 189.012 343.04 192.727Z" fill="#B96426"/>
<path d="M349.347 216.325H363.409L342.808 194.487C342.206 196.719 340.485 198.491 338.284 199.163L349.347 216.325Z" fill="#B96426"/>
<path d="M564.964 371.441C564.964 372.049 565.045 372.639 565.197 373.2C565.799 375.432 567.52 377.204 569.721 377.876C570.342 378.066 571.002 378.168 571.685 378.168C575.397 378.168 578.406 375.156 578.406 371.441C578.406 367.725 575.397 364.713 571.685 364.713C567.973 364.713 564.964 367.725 564.964 371.441Z" fill="#B96426"/>
<path d="M560.108 392.788C559.204 394.191 557.649 395.038 555.98 395.038C551.674 395.038 549.453 389.89 552.408 386.757L554.896 384.119L565.197 373.2C565.799 375.432 567.52 377.204 569.721 377.876L560.108 392.788Z" fill="#B96426"/>
<rect x="329.665" y="213" width="109.888" height="53" rx="26.5" fill="white"/>
<path fill-rule="evenodd" clip-rule="evenodd" d="M439.744 239.239C439.744 222.069 425.825 208.149 408.654 208.149H346.558C329.5 208.149 315.673 221.976 315.673 239.034C315.673 256.091 329.5 269.918 346.558 269.918H393.976C407.49 269.918 418.445 280.874 418.445 294.388V525.619C418.445 531.5 423.213 536.268 429.095 536.268C434.976 536.268 439.744 531.5 439.744 525.619V473.318C439.744 464.626 446.79 457.58 455.482 457.58H540.006C548.698 457.58 555.744 464.626 555.744 473.318V526.354C555.744 531.829 560.183 536.268 565.658 536.268C571.134 536.268 575.573 531.829 575.573 526.354V430.406C575.573 401.172 551.875 377.474 522.642 377.474H485.02C460.015 377.474 439.744 357.204 439.744 332.198V282.667V239.239ZM348.138 216.429H408.106C420.669 216.429 430.852 226.623 430.852 239.198C430.852 251.774 420.669 261.968 408.106 261.968H348.138C335.576 261.968 325.392 251.774 325.392 239.198C325.392 226.623 335.576 216.429 348.138 216.429Z" fill="#FAB225"/>
<mask id="mask0_85_8013" style="mask-type:alpha" maskUnits="userSpaceOnUse" x="315" y="208" width="261" height="329">
<path fill-rule="evenodd" clip-rule="evenodd" d="M439.744 239.239C439.744 222.069 425.825 208.149 408.654 208.149H346.558C329.5 208.149 315.673 221.976 315.673 239.034C315.673 256.091 329.5 269.918 346.558 269.918H393.976C407.49 269.918 418.445 280.874 418.445 294.388V525.619C418.445 531.5 423.213 536.268 429.095 536.268C434.976 536.268 439.744 531.5 439.744 525.619V473.318C439.744 464.626 446.79 457.58 455.482 457.58H540.006C548.698 457.58 555.744 464.626 555.744 473.318V526.354C555.744 531.829 560.183 536.268 565.658 536.268C571.134 536.268 575.573 531.829 575.573 526.354V430.406C575.573 401.172 551.875 377.474 522.642 377.474H485.02C460.015 377.474 439.744 357.204 439.744 332.198V282.667V239.239ZM348.138 216.429H408.106C420.669 216.429 430.852 226.623 430.852 239.198C430.852 251.774 420.669 261.968 408.106 261.968H348.138C335.576 261.968 325.392 251.774 325.392 239.198C325.392 226.623 335.576 216.429 348.138 216.429Z" fill="#FAB225"/>
</mask>
<g mask="url(#mask0_85_8013)">
<ellipse cx="22.9532" cy="22.9766" rx="22.9532" ry="22.9766" transform="matrix(-1 0 0 1 480.594 236.155)" fill="#B96426"/>
<ellipse cx="22.9532" cy="22.9766" rx="22.9532" ry="22.9766" transform="matrix(-1 0 0 1 588.237 442.693)" fill="#B96426"/>
<ellipse cx="22.9532" cy="22.9766" rx="22.9532" ry="22.9766" transform="matrix(-1 0 0 1 469.263 503.659)" fill="#B96426"/>
<ellipse cx="22.9532" cy="22.9766" rx="22.9532" ry="22.9766" transform="matrix(-1 0 0 1 596.736 519.254)" fill="#B96426"/>
<ellipse cx="22.9532" cy="22.9766" rx="22.9532" ry="22.9766" transform="matrix(-1 0 0 1 446.601 298.078)" fill="#B96426"/>
<ellipse cx="22.9532" cy="22.9766" rx="22.9532" ry="22.9766" transform="matrix(-1 0 0 1 486.259 353.372)" fill="#B96426"/>
<ellipse cx="22.9532" cy="22.9766" rx="22.9532" ry="22.9766" transform="matrix(-1 0 0 1 460.765 420.008)" fill="#B96426"/>
<ellipse cx="22.9532" cy="22.9766" rx="22.9532" ry="22.9766" transform="matrix(-1 0 0 1 525.917 405.831)" fill="#B96426"/>
<ellipse cx="22.9532" cy="22.9766" rx="22.9532" ry="22.9766" transform="matrix(-1 0 0 1 585.405 371.803)" fill="#B96426"/>
<ellipse cx="22.9532" cy="22.9766" rx="22.9532" ry="22.9766" transform="matrix(-1 0 0 1 402.428 252.508)" fill="#B96426"/>
<ellipse cx="22.9532" cy="22.9766" rx="22.9532" ry="22.9766" transform="matrix(-1 0 0 1 349.285 203.658)" fill="#B96426"/>
<ellipse cx="22.9532" cy="22.9766" rx="22.9532" ry="22.9766" transform="matrix(-1 0 0 1 458.881 175.299)" fill="#B96426"/>
<ellipse cx="22.9532" cy="22.9766" rx="22.9532" ry="22.9766" transform="matrix(-1 0 0 1 399.327 167.64)" fill="#B96426"/>
</g>
<path d="M410.97 239.095C410.97 239.703 410.889 240.293 410.738 240.854C410.135 243.086 408.414 244.858 406.214 245.53C405.592 245.72 404.933 245.822 404.249 245.822C400.538 245.822 397.529 242.81 397.529 239.095C397.529 235.379 400.538 232.367 404.249 232.367C407.961 232.367 410.97 235.379 410.97 239.095Z" fill="#3C1900"/>
<path d="M372.714 239.095C372.714 239.703 372.633 240.293 372.482 240.854C371.879 243.086 370.158 244.858 367.958 245.53C367.337 245.72 366.677 245.822 365.993 245.822C362.282 245.822 359.273 242.81 359.273 239.095C359.273 235.379 362.282 232.367 365.993 232.367C369.705 232.367 372.714 235.379 372.714 239.095Z" fill="#3C1900"/>
<path d="M455.038 40C455.038 18.1848 472.722 0.5 494.538 0.5H829.115C850.93 0.5 868.615 18.1848 868.615 40V132.488C868.615 154.303 850.93 171.988 829.115 171.988H529.668C522.873 171.988 516.188 173.697 510.228 176.959L466.138 201.083C461.14 203.818 455.038 200.201 455.038 194.503V40Z" stroke="#BFBFBF"/>
<path d="M583.519 72V44H608.279V72H603.159V47.12L604.359 48.4H587.439L588.639 47.12V72H583.519ZM627.454 72.28C625.721 72.28 624.134 71.88 622.694 71.08C621.281 70.28 620.147 69.08 619.294 67.48C618.467 65.8533 618.054 63.8 618.054 61.32C618.054 58.8133 618.454 56.76 619.254 55.16C620.081 53.56 621.201 52.3733 622.614 51.6C624.027 50.8 625.641 50.4 627.454 50.4C629.561 50.4 631.414 50.8533 633.014 51.76C634.641 52.6667 635.921 53.9333 636.854 55.56C637.814 57.1867 638.294 59.1067 638.294 61.32C638.294 63.5333 637.814 65.4667 636.854 67.12C635.921 68.7467 634.641 70.0133 633.014 70.92C631.414 71.8267 629.561 72.28 627.454 72.28ZM615.614 79.76V50.64H620.374V55.68L620.214 61.36L620.614 67.04V79.76H615.614ZM626.894 68C628.094 68 629.161 67.7333 630.094 67.2C631.054 66.6667 631.814 65.8933 632.374 64.88C632.934 63.8667 633.214 62.68 633.214 61.32C633.214 59.9333 632.934 58.7467 632.374 57.76C631.814 56.7467 631.054 55.9733 630.094 55.44C629.161 54.9067 628.094 54.64 626.894 54.64C625.694 54.64 624.614 54.9067 623.654 55.44C622.694 55.9733 621.934 56.7467 621.374 57.76C620.814 58.7467 620.534 59.9333 620.534 61.32C620.534 62.68 620.814 63.8667 621.374 64.88C621.934 65.8933 622.694 66.6667 623.654 67.2C624.614 67.7333 625.694 68 626.894 68ZM643.27 72V50.64H648.27V64.72L660.07 50.64H664.63V72H659.63V57.92L647.87 72H643.27ZM671.356 72V50.64H681.796C684.383 50.64 686.409 51.12 687.876 52.08C689.369 53.04 690.116 54.4 690.116 56.16C690.116 57.8933 689.423 59.2533 688.036 60.24C686.649 61.2 684.809 61.68 682.516 61.68L683.116 60.44C685.703 60.44 687.623 60.92 688.876 61.88C690.156 62.8133 690.796 64.1867 690.796 66C690.796 67.8933 690.089 69.3733 688.676 70.44C687.263 71.48 685.116 72 682.236 72H671.356ZM676.116 68.36H681.836C683.196 68.36 684.223 68.1467 684.916 67.72C685.609 67.2667 685.956 66.5867 685.956 65.68C685.956 64.72 685.636 64.0133 684.996 63.56C684.356 63.1067 683.356 62.88 681.996 62.88H676.116V68.36ZM676.116 59.56H681.356C682.636 59.56 683.596 59.3333 684.236 58.88C684.903 58.4 685.236 57.7333 685.236 56.88C685.236 56 684.903 55.3467 684.236 54.92C683.596 54.4933 682.636 54.28 681.356 54.28H676.116V59.56ZM706.082 72.28C703.708 72.28 701.628 71.8133 699.842 70.88C698.082 69.92 696.708 68.6133 695.722 66.96C694.762 65.3067 694.282 63.4267 694.282 61.32C694.282 59.1867 694.748 57.3067 695.682 55.68C696.642 54.0267 697.948 52.7333 699.602 51.8C701.282 50.8667 703.188 50.4 705.322 50.4C707.402 50.4 709.255 50.8533 710.882 51.76C712.508 52.6667 713.788 53.9467 714.722 55.6C715.655 57.2533 716.122 59.2 716.122 61.44C716.122 61.6533 716.108 61.8933 716.082 62.16C716.082 62.4267 716.068 62.68 716.042 62.92H698.242V59.6H713.402L711.442 60.64C711.468 59.4133 711.215 58.3333 710.682 57.4C710.148 56.4667 709.415 55.7333 708.482 55.2C707.575 54.6667 706.522 54.4 705.322 54.4C704.095 54.4 703.015 54.6667 702.082 55.2C701.175 55.7333 700.455 56.48 699.922 57.44C699.415 58.3733 699.162 59.48 699.162 60.76V61.56C699.162 62.84 699.455 63.9733 700.042 64.96C700.628 65.9467 701.455 66.7067 702.522 67.24C703.588 67.7733 704.815 68.04 706.202 68.04C707.402 68.04 708.482 67.8533 709.442 67.48C710.402 67.1067 711.255 66.52 712.002 65.72L714.682 68.8C713.722 69.92 712.508 70.7867 711.042 71.4C709.602 71.9867 707.948 72.28 706.082 72.28ZM725.21 72V53.68L726.37 54.88H717.69V50.64H737.69V54.88H729.05L730.21 53.68V72H725.21ZM741.557 62.72L740.597 44H746.517L745.517 62.72H741.557ZM743.557 72.28C742.624 72.28 741.85 71.9733 741.237 71.36C740.624 70.7467 740.317 70.0133 740.317 69.16C740.317 68.3067 740.624 67.5867 741.237 67C741.85 66.3867 742.624 66.08 743.557 66.08C744.49 66.08 745.25 66.3867 745.837 67C746.424 67.5867 746.717 68.3067 746.717 69.16C746.717 70.0133 746.424 70.7467 745.837 71.36C745.25 71.9733 744.49 72.28 743.557 72.28ZM498.507 121.4C496.374 121.4 494.387 121.053 492.547 120.36C490.734 119.64 489.147 118.64 487.787 117.36C486.454 116.053 485.414 114.52 484.667 112.76C483.92 111 483.547 109.08 483.547 107C483.547 104.92 483.92 103 484.667 101.24C485.414 99.48 486.467 97.96 487.827 96.68C489.187 95.3733 490.774 94.3733 492.587 93.68C494.4 92.96 496.387 92.6 498.547 92.6C500.84 92.6 502.934 93 504.827 93.8C506.72 94.5733 508.32 95.7333 509.627 97.28L506.267 100.44C505.254 99.3467 504.12 98.5333 502.867 98C501.614 97.44 500.254 97.16 498.787 97.16C497.32 97.16 495.974 97.4 494.747 97.88C493.547 98.36 492.494 99.04 491.587 99.92C490.707 100.8 490.014 101.84 489.507 103.04C489.027 104.24 488.787 105.56 488.787 107C488.787 108.44 489.027 109.76 489.507 110.96C490.014 112.16 490.707 113.2 491.587 114.08C492.494 114.96 493.547 115.64 494.747 116.12C495.974 116.6 497.32 116.84 498.787 116.84C500.254 116.84 501.614 116.573 502.867 116.04C504.12 115.48 505.254 114.64 506.267 113.52L509.627 116.72C508.32 118.24 506.72 119.4 504.827 120.2C502.934 121 500.827 121.4 498.507 121.4ZM524.95 121V99.64H535.39C537.977 99.64 540.003 100.12 541.47 101.08C542.963 102.04 543.71 103.4 543.71 105.16C543.71 106.893 543.017 108.253 541.63 109.24C540.243 110.2 538.403 110.68 536.11 110.68L536.71 109.44C539.297 109.44 541.217 109.92 542.47 110.88C543.75 111.813 544.39 113.187 544.39 115C544.39 116.893 543.683 118.373 542.27 119.44C540.857 120.48 538.71 121 535.83 121H524.95ZM529.71 117.36H535.43C536.79 117.36 537.817 117.147 538.51 116.72C539.203 116.267 539.55 115.587 539.55 114.68C539.55 113.72 539.23 113.013 538.59 112.56C537.95 112.107 536.95 111.88 535.59 111.88H529.71V117.36ZM529.71 108.56H534.95C536.23 108.56 537.19 108.333 537.83 107.88C538.497 107.4 538.83 106.733 538.83 105.88C538.83 105 538.497 104.347 537.83 103.92C537.19 103.493 536.23 103.28 534.95 103.28H529.71V108.56ZM559.235 121.28C557.049 121.28 555.102 120.813 553.395 119.88C551.689 118.92 550.342 117.613 549.355 115.96C548.369 114.307 547.875 112.427 547.875 110.32C547.875 108.187 548.369 106.307 549.355 104.68C550.342 103.027 551.689 101.733 553.395 100.8C555.102 99.8667 557.049 99.4 559.235 99.4C561.449 99.4 563.409 99.8667 565.115 100.8C566.849 101.733 568.195 103.013 569.155 104.64C570.142 106.267 570.635 108.16 570.635 110.32C570.635 112.427 570.142 114.307 569.155 115.96C568.195 117.613 566.849 118.92 565.115 119.88C563.409 120.813 561.449 121.28 559.235 121.28ZM559.235 117C560.462 117 561.555 116.733 562.515 116.2C563.475 115.667 564.222 114.893 564.755 113.88C565.315 112.867 565.595 111.68 565.595 110.32C565.595 108.933 565.315 107.747 564.755 106.76C564.222 105.747 563.475 104.973 562.515 104.44C561.555 103.907 560.475 103.64 559.275 103.64C558.049 103.64 556.955 103.907 555.995 104.44C555.062 104.973 554.315 105.747 553.755 106.76C553.195 107.747 552.915 108.933 552.915 110.32C552.915 111.68 553.195 112.867 553.755 113.88C554.315 114.893 555.062 115.667 555.995 116.2C556.955 116.733 558.035 117 559.235 117ZM582.022 121.36C580.396 121.36 578.782 121.173 577.182 120.8C575.609 120.4 574.182 119.84 572.902 119.12L574.302 115.4C575.342 115.987 576.516 116.44 577.822 116.76C579.129 117.08 580.436 117.24 581.742 117.24C582.862 117.24 583.822 117.133 584.622 116.92C585.422 116.68 586.036 116.333 586.462 115.88C586.916 115.427 587.142 114.907 587.142 114.32C587.142 113.467 586.769 112.827 586.022 112.4C585.302 111.947 584.262 111.72 582.902 111.72H578.782V108.36H582.502C583.356 108.36 584.076 108.267 584.662 108.08C585.276 107.893 585.742 107.613 586.062 107.24C586.382 106.867 586.542 106.427 586.542 105.92C586.542 105.413 586.342 104.973 585.942 104.6C585.569 104.2 585.022 103.907 584.302 103.72C583.582 103.507 582.716 103.4 581.702 103.4C580.636 103.4 579.529 103.533 578.382 103.8C577.262 104.067 576.116 104.453 574.942 104.96L573.662 101.28C575.022 100.667 576.342 100.2 577.622 99.88C578.929 99.5333 580.222 99.3467 581.502 99.32C583.449 99.24 585.182 99.44 586.702 99.92C588.222 100.4 589.422 101.093 590.302 102C591.182 102.907 591.622 103.973 591.622 105.2C591.622 106.213 591.302 107.133 590.662 107.96C590.049 108.76 589.196 109.387 588.102 109.84C587.036 110.293 585.809 110.52 584.422 110.52L584.582 109.44C586.956 109.44 588.822 109.92 590.182 110.88C591.542 111.813 592.222 113.093 592.222 114.72C592.222 116.027 591.782 117.187 590.902 118.2C590.022 119.187 588.809 119.96 587.262 120.52C585.742 121.08 583.996 121.36 582.022 121.36ZM597.372 121V99.64H607.812C610.398 99.64 612.425 100.12 613.892 101.08C615.385 102.04 616.132 103.4 616.132 105.16C616.132 106.893 615.438 108.253 614.052 109.24C612.665 110.2 610.825 110.68 608.532 110.68L609.132 109.44C611.718 109.44 613.638 109.92 614.892 110.88C616.172 111.813 616.812 113.187 616.812 115C616.812 116.893 616.105 118.373 614.692 119.44C613.278 120.48 611.132 121 608.252 121H597.372ZM602.132 117.36H607.852C609.212 117.36 610.238 117.147 610.932 116.72C611.625 116.267 611.972 115.587 611.972 114.68C611.972 113.72 611.652 113.013 611.012 112.56C610.372 112.107 609.372 111.88 608.012 111.88H602.132V117.36ZM602.132 108.56H607.372C608.652 108.56 609.612 108.333 610.252 107.88C610.918 107.4 611.252 106.733 611.252 105.88C611.252 105 610.918 104.347 610.252 103.92C609.612 103.493 608.652 103.28 607.372 103.28H602.132V108.56ZM633.977 121.28C632.244 121.28 630.657 120.88 629.217 120.08C627.804 119.28 626.671 118.08 625.817 116.48C624.991 114.853 624.577 112.8 624.577 110.32C624.577 107.813 624.977 105.76 625.777 104.16C626.604 102.56 627.724 101.373 629.137 100.6C630.551 99.8 632.164 99.4 633.977 99.4C636.084 99.4 637.937 99.8533 639.537 100.76C641.164 101.667 642.444 102.933 643.377 104.56C644.337 106.187 644.817 108.107 644.817 110.32C644.817 112.533 644.337 114.467 643.377 116.12C642.444 117.747 641.164 119.013 639.537 119.92C637.937 120.827 636.084 121.28 633.977 121.28ZM622.137 128.76V99.64H626.897V104.68L626.737 110.36L627.137 116.04V128.76H622.137ZM633.417 117C634.617 117 635.684 116.733 636.617 116.2C637.577 115.667 638.337 114.893 638.897 113.88C639.457 112.867 639.737 111.68 639.737 110.32C639.737 108.933 639.457 107.747 638.897 106.76C638.337 105.747 637.577 104.973 636.617 104.44C635.684 103.907 634.617 103.64 633.417 103.64C632.217 103.64 631.137 103.907 630.177 104.44C629.217 104.973 628.457 105.747 627.897 106.76C627.337 107.747 627.057 108.933 627.057 110.32C627.057 111.68 627.337 112.867 627.897 113.88C628.457 114.893 629.217 115.667 630.177 116.2C631.137 116.733 632.217 117 633.417 117ZM662.48 121V116.68L662.2 115.76V108.2C662.2 106.733 661.76 105.6 660.88 104.8C660 103.973 658.667 103.56 656.88 103.56C655.68 103.56 654.493 103.747 653.32 104.12C652.173 104.493 651.2 105.013 650.4 105.68L648.44 102.04C649.587 101.16 650.947 100.507 652.52 100.08C654.12 99.6267 655.773 99.4 657.48 99.4C660.573 99.4 662.96 100.147 664.64 101.64C666.347 103.107 667.2 105.387 667.2 108.48V121H662.48ZM655.76 121.28C654.16 121.28 652.76 121.013 651.56 120.48C650.36 119.92 649.427 119.16 648.76 118.2C648.12 117.213 647.8 116.107 647.8 114.88C647.8 113.68 648.08 112.6 648.64 111.64C649.227 110.68 650.173 109.92 651.48 109.36C652.787 108.8 654.52 108.52 656.68 108.52H662.88V111.84H657.04C655.333 111.84 654.187 112.12 653.6 112.68C653.013 113.213 652.72 113.88 652.72 114.68C652.72 115.587 653.08 116.307 653.8 116.84C654.52 117.373 655.52 117.64 656.8 117.64C658.027 117.64 659.12 117.36 660.08 116.8C661.067 116.24 661.773 115.413 662.2 114.32L663.04 117.32C662.56 118.573 661.693 119.547 660.44 120.24C659.213 120.933 657.653 121.28 655.76 121.28ZM687.747 116.76L686.667 117.96V99.64H691.667V117.96L690.467 116.76H701.027L699.867 117.96V99.64H704.867V121H673.387V99.64H678.387V117.96L677.227 116.76H687.747ZM703.267 125.4V119.76L704.427 121H699.707V116.76H707.947V125.4H703.267ZM721.55 121.28C719.177 121.28 717.097 120.813 715.31 119.88C713.55 118.92 712.177 117.613 711.19 115.96C710.23 114.307 709.75 112.427 709.75 110.32C709.75 108.187 710.217 106.307 711.15 104.68C712.11 103.027 713.417 101.733 715.07 100.8C716.75 99.8667 718.657 99.4 720.79 99.4C722.87 99.4 724.724 99.8533 726.35 100.76C727.977 101.667 729.257 102.947 730.19 104.6C731.124 106.253 731.59 108.2 731.59 110.44C731.59 110.653 731.577 110.893 731.55 111.16C731.55 111.427 731.537 111.68 731.51 111.92H713.71V108.6H728.87L726.91 109.64C726.937 108.413 726.684 107.333 726.15 106.4C725.617 105.467 724.884 104.733 723.95 104.2C723.044 103.667 721.99 103.4 720.79 103.4C719.564 103.4 718.484 103.667 717.55 104.2C716.644 104.733 715.924 105.48 715.39 106.44C714.884 107.373 714.63 108.48 714.63 109.76V110.56C714.63 111.84 714.924 112.973 715.51 113.96C716.097 114.947 716.924 115.707 717.99 116.24C719.057 116.773 720.284 117.04 721.67 117.04C722.87 117.04 723.95 116.853 724.91 116.48C725.87 116.107 726.724 115.52 727.47 114.72L730.15 117.8C729.19 118.92 727.977 119.787 726.51 120.4C725.07 120.987 723.417 121.28 721.55 121.28ZM737.059 121V99.64H742.059V108.32H752.819V99.64H757.819V121H752.819V112.56H742.059V121H737.059ZM764.52 121V99.64H769.52V113.72L781.32 99.64H785.88V121H780.88V106.92L769.12 121H764.52ZM802.566 121.28C800.193 121.28 798.113 120.813 796.326 119.88C794.566 118.92 793.193 117.613 792.206 115.96C791.246 114.307 790.766 112.427 790.766 110.32C790.766 108.187 791.233 106.307 792.166 104.68C793.126 103.027 794.433 101.733 796.086 100.8C797.766 99.8667 799.673 99.4 801.806 99.4C803.886 99.4 805.739 99.8533 807.366 100.76C808.993 101.667 810.273 102.947 811.206 104.6C812.139 106.253 812.606 108.2 812.606 110.44C812.606 110.653 812.593 110.893 812.566 111.16C812.566 111.427 812.553 111.68 812.526 111.92H794.726V108.6H809.886L807.926 109.64C807.953 108.413 807.699 107.333 807.166 106.4C806.633 105.467 805.899 104.733 804.966 104.2C804.059 103.667 803.006 103.4 801.806 103.4C800.579 103.4 799.499 103.667 798.566 104.2C797.659 104.733 796.939 105.48 796.406 106.44C795.899 107.373 795.646 108.48 795.646 109.76V110.56C795.646 111.84 795.939 112.973 796.526 113.96C797.113 114.947 797.939 115.707 799.006 116.24C800.073 116.773 801.299 117.04 802.686 117.04C803.886 117.04 804.966 116.853 805.926 116.48C806.886 116.107 807.739 115.52 808.486 114.72L811.166 117.8C810.206 118.92 808.993 119.787 807.526 120.4C806.086 120.987 804.433 121.28 802.566 121.28ZM818.075 121V99.64H823.315L831.915 114.8H829.835L838.875 99.64H843.555L843.595 121H839.075V105L839.875 105.52L831.875 118.76H829.715L821.675 105.16L822.635 104.92V121H818.075Z" fill="#948173"/>
</svg>
